<svg xmlns="http://www.w3.org/2000/svg" xmlns:xlink="http://www.w3.org/1999/xlink" width="96" height="96" viewBox="0 0 96 96">
  <defs>
    <filter id="Ellipse_1" x="0" y="0" width="96" height="96" filterUnits="userSpaceOnUse">
      <feOffset dy="10" input="SourceAlpha"/>
      <feGaussianBlur stdDeviation="10" result="blur"/>
      <feFlood flood-color="#2677dc" flood-opacity="0.259"/>
      <feComposite operator="in" in2="blur"/>
      <feComposite in="SourceGraphic"/>
    </filter>
  </defs>
  <g id="Group_12" data-name="Group 12" transform="translate(17 9)">
    <g transform="matrix(1, 0, 0, 1, -17, -9)" filter="url(#Ellipse_1)">
      <circle id="Ellipse_1-2" data-name="Ellipse 1" cx="18" cy="18" r="18" transform="translate(30 20)" fill="#26dc69"/>
    </g>
    <g id="Polygon_39" data-name="Polygon 39" transform="translate(1)" fill="none">
      <path d="M26.553,1.646a8,8,0,0,1,6.894,0L50.575,9.824a8,8,0,0,1,4.349,5.425l4.205,18.268a8,8,0,0,1-1.562,6.808L45.753,55.014A8,8,0,0,1,39.519,58H20.481a8,8,0,0,1-6.234-2.986L2.433,40.325A8,8,0,0,1,.871,33.517L5.076,15.249A8,8,0,0,1,9.425,9.824Z" stroke="none"/>
      <path d="M 29.99999809265137 1.865219116210938 C 28.96274757385254 1.865219116210938 27.91974639892578 2.101459503173828 26.98374938964844 2.548389434814453 L 9.855857849121094 10.72686004638672 C 7.918987274169922 11.65171051025391 6.531997680664062 13.38174819946289 6.050506591796875 15.4734001159668 L 1.84539794921875 33.7410888671875 C 1.361118316650391 35.84487915039062 1.859348297119141 38.01626968383789 3.212348937988281 39.698486328125 L 15.02624893188477 54.38711929321289 C 16.36178970336914 56.04763793945312 18.34993743896484 57 20.48090744018555 57 L 39.51909637451172 57 C 41.65005874633789 57 43.63819885253906 56.04763793945312 44.97373962402344 54.38710784912109 L 56.78764724731445 39.698486328125 C 58.14064788818359 38.01625823974609 58.63887786865234 35.84487152099609 58.15459823608398 33.74108123779297 L 53.94947814941406 15.4733772277832 C 53.46798706054688 13.38174057006836 52.08098602294922 11.65168762207031 50.14412689208984 10.72684860229492 L 33.01625061035156 2.548389434814453 C 32.08024597167969 2.101459503173828 31.0372486114502 1.865219116210938 29.99999809265137 1.865219116210938 M 29.99999809265137 0.8652153015136719 C 31.17851829528809 0.8652153015136719 32.35704040527344 1.125473022460938 33.44713592529297 1.645988464355469 L 50.57501983642578 9.824447631835938 C 52.77571868896484 10.87526702880859 54.37691879272461 12.87249755859375 54.92398834228516 15.24905014038086 L 59.12910842895508 33.51674652099609 C 59.67903900146484 35.90571594238281 59.10328674316406 38.41495895385742 57.56688690185547 40.32521820068359 L 45.75297927856445 55.01383972167969 C 44.23443603515625 56.90188980102539 41.94204711914062 58 39.51909637451172 58 L 20.48090744018555 58 C 18.05794906616211 58 15.76554870605469 56.90189743041992 14.24700927734375 55.01384735107422 L 2.433109283447266 40.32521820068359 C 0.8967094421386719 38.41495895385742 0.3209571838378906 35.90573120117188 0.8708877563476562 33.51675796508789 L 5.075996398925781 15.24906921386719 C 5.623069763183594 12.87250900268555 7.224269866943359 10.87527847290039 9.424968719482422 9.824459075927734 L 26.5528564453125 1.645988464355469 C 27.64295959472656 1.125473022460938 28.82147789001465 0.8652153015136719 29.99999809265137 0.8652153015136719 Z" stroke="none" fill="rgba(0,170,45,0.4)"/>
    </g>
    <g id="customer-service-2-fill" transform="translate(19 17.592)">
      <path id="Path_13188" data-name="Path 13188" d="M0,0H24V24H0Z" fill="none"/>
      <path id="Path_13189" data-name="Path 13189" d="M21,8a2,2,0,0,1,2,2v4a2,2,0,0,1-2,2H19.938A8,8,0,0,1,12,23V21a6,6,0,0,0,6-6V9A6,6,0,0,0,6,9v7H3a2,2,0,0,1-2-2V10A2,2,0,0,1,3,8H4.062A8,8,0,0,1,19.938,8ZM7.76,15.785l1.06-1.7a6.006,6.006,0,0,0,6.36,0l1.06,1.7a8.006,8.006,0,0,1-8.48,0Z" fill="#fff"/>
    </g>
  </g>
</svg>
