<svg xmlns="http://www.w3.org/2000/svg" xmlns:xlink="http://www.w3.org/1999/xlink" width="96" height="96" viewBox="0 0 96 96">
  <defs>
    <filter id="Path_13187" x="0" y="0" width="96" height="96" filterUnits="userSpaceOnUse">
      <feOffset dy="10" input="SourceAlpha"/>
      <feGaussianBlur stdDeviation="10" result="blur"/>
      <feFlood flood-color="#4b00fa" flood-opacity="0.18"/>
      <feComposite operator="in" in2="blur"/>
      <feComposite in="SourceGraphic"/>
    </filter>
  </defs>
  <g id="Group_10" data-name="Group 10" transform="translate(21.502 8)">
    <g id="Path_9" data-name="Path 9" transform="translate(-32.012 0)" fill="#fff">
      <path d="M32.9,7.553l25-7.5a1.251,1.251,0,0,1,.718,0l25,7.5a1.25,1.25,0,0,1,.892,1.2v27.5c0,11.052-16.854,20.884-25.879,23.694a1.25,1.25,0,0,1-.75,0C48.866,57.133,32.012,47.3,32.012,36.249V8.75A1.25,1.25,0,0,1,32.9,7.553Z" stroke="none"/>
      <path d="M 58.25957870483398 2.033489227294922 L 34.01198577880859 9.307777404785156 L 34.01198577880859 36.2490234375 C 34.01198577880859 38.43180084228516 34.82817840576172 40.733642578125 36.43788909912109 43.09063339233398 C 37.93170928955078 45.27791213989258 40.07242584228516 47.47246551513672 42.80059814453125 49.61334228515625 C 48.20982360839844 53.85811233520508 54.44771957397461 56.74192428588867 58.25590133666992 57.96391677856445 C 62.0663948059082 56.7425537109375 68.30828857421875 53.85897445678711 73.71994781494141 49.61328125 C 76.44853210449219 47.47258377075195 78.58958435058594 45.27805328369141 80.08362579345703 43.09062194824219 C 81.69340515136719 40.73373413085938 82.50963592529297 38.43189239501953 82.50963592529297 36.2490234375 L 82.50963592529297 9.308509826660156 L 58.25957870483398 2.033489227294922 M 58.25958633422852 0.000492095947265625 C 58.38045883178711 0.000492095947265625 58.5013313293457 0.01801300048828125 58.61833572387695 0.0530548095703125 L 83.6171875 7.552711486816406 C 84.14662170410156 7.710792541503906 84.50952911376953 8.197681427001953 84.50963592529297 8.750202178955078 L 84.50963592529297 36.2490234375 C 84.50963592529297 47.30106353759766 67.65544128417969 57.13312149047852 58.63075637817383 59.94292449951172 C 58.38667678833008 60.01968383789062 58.1248893737793 60.01968383789062 57.88078689575195 59.94292449951172 C 48.86619567871094 57.13301467895508 32.01198577880859 47.30095291137695 32.01198577880859 36.2490234375 L 32.01198577880859 8.750083923339844 C 32.01186370849609 8.198272705078125 32.37360382080078 7.711624145507812 32.90198516845703 7.552711486816406 L 57.90083694458008 0.0530548095703125 C 58.01784133911133 0.01801300048828125 58.13871383666992 0.000492095947265625 58.25958633422852 0.000492095947265625 Z" stroke="none" fill="rgba(54,0,131,0.4)"/>
    </g>
    <g transform="matrix(1, 0, 0, 1, -21.5, -8)" filter="url(#Path_13187)">
      <path id="Path_13187-2" data-name="Path 13187" d="M18,0A18,18,0,1,1,0,18,18,18,0,0,1,18,0Z" transform="translate(30 20)" fill="#360083"/>
    </g>
    <path id="Polygon_2" data-name="Polygon 2" d="M12,0l3.6,7.654L24,8.709l-6.175,5.785L19.416,22.8,12,18.721,4.584,22.8l1.591-8.306L0,8.709,8.4,7.654Z" transform="translate(14.498 18)" fill="#fff"/>
  </g>
</svg>
