<svg id="Iconly_Bold_Time_Circle" data-name="Iconly/Bold/Time Circle" xmlns="http://www.w3.org/2000/svg" width="31.547" height="31.547" viewBox="0 0 31.547 31.547">
  <g id="Time_Circle" data-name="Time Circle" transform="translate(2.629 2.629)">
    <path id="Time_Circle-2" data-name="Time Circle" d="M13.144,26.289A13.144,13.144,0,0,1,13.144,0a13.15,13.15,0,0,1,9.3,22.443A13.061,13.061,0,0,1,13.144,26.289Zm-.46-19.808a.987.987,0,0,0-.985.985V14.1a.982.982,0,0,0,.486.841l5.153,3.076a1,1,0,0,0,.512.146.98.98,0,0,0,.841-.487.993.993,0,0,0-.342-1.353l-4.679-2.787V7.466A.987.987,0,0,0,12.684,6.481Z" transform="translate(0 0)" fill="#0d0d0d"/>
  </g>
</svg>
