<svg id="Iconly_Bulk_Play" data-name="Iconly/Bulk/Play" xmlns="http://www.w3.org/2000/svg" width="104.167" height="104.167" viewBox="0 0 104.167 104.167">
  <g id="Play">
    <path id="Fill_1" data-name="Fill 1" d="M104.167,52.108A52.083,52.083,0,1,1,52.083,0a52.146,52.146,0,0,1,52.083,52.108" fill="#f9ffff" opacity="0.4"/>
    <path id="Fill_4" data-name="Fill 4" d="M36.458,20.859a6,6,0,0,1-1.243,3.7,20.11,20.11,0,0,1-1.45,1.62l-.311.3C29.1,31.091,18.281,38.027,12.791,40.249a18.1,18.1,0,0,1-4.816,1.418H7.768A6.533,6.533,0,0,1,2.02,38.229,28.448,28.448,0,0,1,.777,33.622,91.817,91.817,0,0,1,0,20.808,79.234,79.234,0,0,1,.88,7.594a33.237,33.237,0,0,1,.932-3.7A6.643,6.643,0,0,1,4.713.759,7.406,7.406,0,0,1,7.975,0a17.932,17.932,0,0,1,4.3,1.164c5.8,2.228,16.883,9.518,21.129,13.973.725.709,1.5,1.575,1.709,1.772a6.3,6.3,0,0,1,1.346,3.949" transform="translate(36.458 31.25)" fill="#f9ffff"/>
  </g>
</svg>
