<svg xmlns="http://www.w3.org/2000/svg" xmlns:xlink="http://www.w3.org/1999/xlink" width="41.982" height="42.839" viewBox="0 0 41.982 42.839">
  <defs>
    <clipPath id="clip-path">
      <rect id="Rectangle_6371" data-name="Rectangle 6371" width="41.982" height="42.839" rx="7" transform="translate(266.75 52.083)" fill="#ffcc03"/>
    </clipPath>
  </defs>
  <g id="Mask_Group_262" data-name="Mask Group 262" transform="translate(-266.75 -52.083)" clip-path="url(#clip-path)">
    <g id="diamond_1_" data-name="diamond (1)" transform="translate(266.321 52.083)">
      <path id="Path_13230" data-name="Path 13230" d="M22.675,3.765V1.255a1.255,1.255,0,1,0-2.51,0v2.51a1.255,1.255,0,1,0,2.51,0Z" fill="#ffcc03"/>
      <path id="Path_13231" data-name="Path 13231" d="M12.4,7.019a1.255,1.255,0,0,0,.607-1.668L11.949,3.076A1.255,1.255,0,0,0,9.674,4.137l1.061,2.275A1.255,1.255,0,0,0,12.4,7.019Z" fill="#ffcc03"/>
      <path id="Path_13232" data-name="Path 13232" d="M4.921,10.957,3,9.344a1.255,1.255,0,1,0-1.613,1.923L3.307,12.88a1.255,1.255,0,1,0,1.613-1.923Z" fill="#ffcc03"/>
      <path id="Path_13233" data-name="Path 13233" d="M32.1,6.412l1.061-2.275A1.255,1.255,0,0,0,30.89,3.076L29.829,5.351A1.255,1.255,0,0,0,32.1,6.412Z" fill="#ffcc03"/>
      <path id="Path_13234" data-name="Path 13234" d="M41.61,9.5a1.255,1.255,0,0,0-1.768-.155l-1.923,1.613a1.255,1.255,0,1,0,1.613,1.923l1.923-1.613A1.255,1.255,0,0,0,41.61,9.5Z" fill="#ffcc03"/>
      <path id="Path_13235" data-name="Path 13235" d="M8.874,12.634a1.286,1.286,0,0,0-1.056.569L2.8,20.723a1.261,1.261,0,0,0,.1,1.521L20.473,42.409a1.255,1.255,0,0,0,1.892,0L39.937,22.244a1.261,1.261,0,0,0,.1-1.521L35.021,13.2a1.26,1.26,0,0,0-1.051-.569H8.874Zm27.771,7.53h-5.35l2.675-4.013Zm-19.726,0,4.5-4.5,4.5,4.5Zm10.22,2.51L21.42,37.926,15.7,22.675ZM17.864,35.593,6.607,22.675H13.02ZM29.82,22.675h6.412L24.975,35.593ZM28.755,19.45,24.45,15.144h7.176Zm-14.671,0-2.87-4.305H18.39Zm-2.54.715H6.194l2.675-4.013Z" fill="#ffcc03"/>
    </g>
  </g>
</svg>
