<svg xmlns="http://www.w3.org/2000/svg" xmlns:xlink="http://www.w3.org/1999/xlink" width="109" height="109" viewBox="0 0 109 109">
  <defs>
    <clipPath id="clip-path">
      <rect id="Rectangle_2562" data-name="Rectangle 2562" width="109" height="109" transform="translate(1095 1090)" fill="#fff" stroke="#707070" stroke-width="1"/>
    </clipPath>
    <linearGradient id="linear-gradient" y1="0.5" x2="1" y2="0.5" gradientUnits="objectBoundingBox">
      <stop offset="0" stop-color="#43386b"/>
      <stop offset="1" stop-color="#7662bd"/>
    </linearGradient>
    <linearGradient id="linear-gradient-2" x1="0.528" y1="0.463" x2="0.699" y2="0.236" xlink:href="#linear-gradient"/>
    <linearGradient id="linear-gradient-3" x1="0.5" y1="1.171" x2="0.5" y2="0.139" gradientUnits="objectBoundingBox">
      <stop offset="0" stop-color="#a996eb"/>
      <stop offset="1" stop-color="#c5baeb"/>
    </linearGradient>
    <linearGradient id="linear-gradient-4" x1="0.528" y1="0.463" x2="0.699" y2="0.236" xlink:href="#linear-gradient"/>
    <linearGradient id="linear-gradient-5" x1="0.5" y1="1" x2="0.5" y2="0" xlink:href="#linear-gradient-3"/>
    <linearGradient id="linear-gradient-6" x1="0.528" y1="0.463" x2="0.699" y2="0.236" xlink:href="#linear-gradient"/>
    <linearGradient id="linear-gradient-12" x1="0.528" y1="0.463" x2="0.699" y2="0.236" xlink:href="#linear-gradient"/>
    <linearGradient id="linear-gradient-20" x1="0.528" y1="0.463" x2="0.699" y2="0.236" gradientUnits="objectBoundingBox">
      <stop offset="0" stop-color="#ffa538"/>
      <stop offset="1" stop-color="#ffc538"/>
    </linearGradient>
    <linearGradient id="linear-gradient-21" x1="0.614" y1="0.418" x2="0.717" y2="0.327" gradientUnits="objectBoundingBox">
      <stop offset="0" stop-color="#236568"/>
      <stop offset="1" stop-color="#2f878a"/>
    </linearGradient>
  </defs>
  <g id="Mask_Group_234" data-name="Mask Group 234" transform="translate(-1095 -1090)" clip-path="url(#clip-path)">
    <g id="delivery_4_" data-name="delivery (4)" transform="translate(1091.473 1090)">
      <g id="Group_24186" data-name="Group 24186">
        <path id="Path_9825" data-name="Path 9825" d="M71.486,6.98v0L60.624.706A2.977,2.977,0,0,0,57.205.4L16.519,23.895a7.9,7.9,0,0,0-3.949,6.84V99.387a2.959,2.959,0,0,0,1.4,2.529v0l.051.029.1.059L25,108.289a2.977,2.977,0,0,0,3.423.305L69.11,85.1a7.9,7.9,0,0,0,3.949-6.84V9.612A2.966,2.966,0,0,0,71.486,6.98Z" fill="url(#linear-gradient)"/>
        <path id="Path_9826" data-name="Path 9826" d="M27.878,30.508,68.565,7.017a3,3,0,0,1,4.494,2.594V78.264A7.9,7.9,0,0,1,69.11,85.1l-40.687,23.49A3,3,0,0,1,23.93,106V37.347A7.9,7.9,0,0,1,27.878,30.508Z" fill="#7662bd"/>
        <path id="Path_9827" data-name="Path 9827" d="M28.71,38.524,68.782,15.389V27.848L28.71,50.983Z" fill="#43386b"/>
        <g id="Group_24177" data-name="Group 24177">
          <path id="Path_9828" data-name="Path 9828" d="M41.624,51.908h0L39.5,50.686h0a3.132,3.132,0,0,0-3.088.3c-2.671,1.542-4.836,5.679-4.836,9.241,0,1.958.655,3.332,1.688,3.918h0L35.2,65.264l0,0a3.078,3.078,0,0,0,3.2-.235c2.671-1.542,4.836-5.679,4.836-9.241,0-1.911-.624-3.267-1.614-3.876Z" fill="url(#linear-gradient-2)"/>
          <path id="Path_9829" data-name="Path 9829" d="M43.239,55.784c0-3.561-2.165-5.2-4.836-3.656s-4.836,5.679-4.836,9.241,2.165,5.2,4.836,3.656S43.239,59.346,43.239,55.784Z" fill="url(#linear-gradient-3)"/>
        </g>
        <g id="Group_24178" data-name="Group 24178">
          <path id="Path_9830" data-name="Path 9830" d="M53.769,44.88h0l-2.122-1.222h0a3.132,3.132,0,0,0-3.088.3c-2.671,1.542-4.836,5.679-4.836,9.241,0,1.958.655,3.332,1.688,3.918h0l1.939,1.119,0,0a3.078,3.078,0,0,0,3.2-.235c2.671-1.542,4.836-5.679,4.836-9.241,0-1.911-.624-3.267-1.614-3.876Z" fill="url(#linear-gradient-4)"/>
          <path id="Path_9831" data-name="Path 9831" d="M55.384,48.755c0-3.561-2.165-5.2-4.836-3.656s-4.836,5.679-4.836,9.241,2.165,5.2,4.836,3.656,4.836-5.679,4.836-9.241Z" fill="url(#linear-gradient-5)"/>
        </g>
        <g id="Group_24179" data-name="Group 24179">
          <path id="Path_9832" data-name="Path 9832" d="M65.915,37.866h0l-2.122-1.222h0a3.132,3.132,0,0,0-3.088.3c-2.671,1.542-4.836,5.679-4.836,9.241,0,1.958.655,3.332,1.688,3.918h0L59.5,51.222l0,0a3.078,3.078,0,0,0,3.2-.235c2.671-1.542,4.836-5.679,4.836-9.241C67.529,39.831,66.905,38.475,65.915,37.866Z" fill="url(#linear-gradient-6)"/>
          <path id="Path_9833" data-name="Path 9833" d="M67.529,41.742c0-3.561-2.165-5.2-4.836-3.656s-4.836,5.679-4.836,9.241,2.165,5.2,4.836,3.656S67.529,45.3,67.529,41.742Z" fill="url(#linear-gradient-5)"/>
        </g>
        <g id="Group_24180" data-name="Group 24180">
          <path id="Path_9834" data-name="Path 9834" d="M41.624,68.481h0L39.5,67.259h0a3.132,3.132,0,0,0-3.088.3c-2.671,1.542-4.836,5.679-4.836,9.241,0,1.958.655,3.332,1.688,3.918h0L35.2,81.836l0,0a3.078,3.078,0,0,0,3.2-.235c2.671-1.542,4.836-5.679,4.836-9.241,0-1.911-.624-3.267-1.614-3.876Z" fill="url(#linear-gradient-2)"/>
          <path id="Path_9835" data-name="Path 9835" d="M43.239,72.357c0-3.561-2.165-5.2-4.836-3.656s-4.836,5.679-4.836,9.241,2.165,5.2,4.836,3.656S43.239,75.918,43.239,72.357Z" fill="url(#linear-gradient-5)"/>
        </g>
        <g id="Group_24181" data-name="Group 24181">
          <path id="Path_9836" data-name="Path 9836" d="M53.769,61.452h0L51.647,60.23h0a3.132,3.132,0,0,0-3.088.3c-2.671,1.542-4.836,5.679-4.836,9.241,0,1.958.655,3.332,1.688,3.918h0l1.939,1.119,0,0a3.078,3.078,0,0,0,3.2-.235c2.671-1.542,4.836-5.679,4.836-9.241,0-1.911-.624-3.267-1.614-3.876Z" fill="url(#linear-gradient-4)"/>
          <path id="Path_9837" data-name="Path 9837" d="M55.384,65.328c0-3.561-2.165-5.2-4.836-3.656s-4.836,5.679-4.836,9.241,2.165,5.2,4.836,3.656S55.384,68.889,55.384,65.328Z" fill="url(#linear-gradient-5)"/>
        </g>
        <g id="Group_24182" data-name="Group 24182">
          <path id="Path_9838" data-name="Path 9838" d="M65.915,54.439h0l-2.122-1.222h0a3.132,3.132,0,0,0-3.088.3c-2.671,1.542-4.836,5.679-4.836,9.241,0,1.958.655,3.332,1.688,3.918h0L59.5,67.794l0,0a3.078,3.078,0,0,0,3.2-.235c2.671-1.542,4.836-5.679,4.836-9.241,0-1.911-.624-3.267-1.614-3.876Z" fill="url(#linear-gradient-12)"/>
          <path id="Path_9839" data-name="Path 9839" d="M67.529,58.315c0-3.561-2.165-5.2-4.836-3.656s-4.836,5.679-4.836,9.241,2.165,5.2,4.836,3.656S67.529,61.876,67.529,58.315Z" fill="url(#linear-gradient-5)"/>
        </g>
        <g id="Group_24183" data-name="Group 24183">
          <path id="Path_9840" data-name="Path 9840" d="M41.624,85.053h0L39.5,83.831h0a3.132,3.132,0,0,0-3.088.3c-2.671,1.542-4.836,5.679-4.836,9.241,0,1.958.655,3.332,1.688,3.918h0L35.2,98.409l0,0a3.078,3.078,0,0,0,3.2-.235c2.671-1.542,4.836-5.679,4.836-9.241,0-1.911-.624-3.267-1.614-3.876Z" fill="url(#linear-gradient-2)"/>
          <path id="Path_9841" data-name="Path 9841" d="M43.239,88.929c0-3.561-2.165-5.2-4.836-3.656s-4.836,5.679-4.836,9.241,2.165,5.2,4.836,3.656S43.239,92.491,43.239,88.929Z" fill="url(#linear-gradient-5)"/>
        </g>
        <g id="Group_24184" data-name="Group 24184">
          <path id="Path_9842" data-name="Path 9842" d="M53.769,78.025h0L51.647,76.8h0a3.132,3.132,0,0,0-3.088.3c-2.671,1.542-4.836,5.679-4.836,9.241,0,1.958.655,3.332,1.688,3.918h0L47.35,91.38l0,0a3.078,3.078,0,0,0,3.2-.235c2.671-1.542,4.836-5.679,4.836-9.241,0-1.911-.624-3.267-1.614-3.876Z" fill="url(#linear-gradient-4)"/>
          <path id="Path_9843" data-name="Path 9843" d="M55.384,81.9c0-3.561-2.165-5.2-4.836-3.656s-4.836,5.679-4.836,9.241,2.165,5.2,4.836,3.656S55.384,85.462,55.384,81.9Z" fill="url(#linear-gradient-5)"/>
        </g>
        <g id="Group_24185" data-name="Group 24185">
          <path id="Path_9844" data-name="Path 9844" d="M65.915,71.011h0l-2.122-1.222h0a3.132,3.132,0,0,0-3.088.3c-2.671,1.542-4.836,5.679-4.836,9.241,0,1.958.655,3.332,1.688,3.918h0L59.5,84.366l0,0a3.078,3.078,0,0,0,3.2-.235c2.671-1.542,4.836-5.679,4.836-9.241,0-1.911-.624-3.267-1.614-3.876Z" fill="url(#linear-gradient-12)"/>
          <path id="Path_9845" data-name="Path 9845" d="M67.529,74.887c0-3.561-2.165-5.2-4.836-3.656s-4.836,5.679-4.836,9.241,2.165,5.2,4.836,3.656S67.529,78.449,67.529,74.887Z" fill="url(#linear-gradient-5)"/>
        </g>
      </g>
      <g id="Group_24189" data-name="Group 24189">
        <path id="Path_9846" data-name="Path 9846" d="M90.574,46.027v0l-7.7-4.431h0c-3.038-1.61-6.94-1.381-11.2,1.078-9.687,5.593-17.54,20.6-17.54,33.513,0,7.1,2.377,12.086,6.124,14.211l0,.006,7.032,4.06.007-.015c3.091,1.847,7.146,1.714,11.589-.851C88.578,88,96.431,73,96.431,60.084c0-6.931-2.263-11.849-5.856-14.057Z" fill="url(#linear-gradient-20)"/>
        <ellipse id="Ellipse_404" data-name="Ellipse 404" cx="26.928" cy="15.234" rx="26.928" ry="15.234" transform="translate(54.344 89.055) rotate(-66.922)" fill="#f7e041"/>
        <g id="Group_24188" data-name="Group 24188">
          <path id="Path_9847" data-name="Path 9847" d="M89.807,69.423,85.24,66.746a5.1,5.1,0,0,0-3.387-.409,4.923,4.923,0,0,1,1.262-1.02,10.352,10.352,0,0,1,6.387-.862l1.95-6.589L86.83,55.158a6.6,6.6,0,0,0-1.568-.227V53.113L80.641,50.4l-3.759,2.17v5.539A14.836,14.836,0,0,0,71,69.382c0,2.827.955,4,2.286,4.383l3.341,1.929c.978,1.076,2.542,1.049,4.119.783a5.682,5.682,0,0,1-1.8,1.585,7.747,7.747,0,0,1-7.178.15l-2.007,6.547,4.621,2.709a6.622,6.622,0,0,0,2.5.688V90.48L81.5,93.19l3.759-2.17V85.254c3.561-2.7,6.218-6.943,6.218-11.578,0-2.409-.672-3.657-1.673-4.253Z" fill="url(#linear-gradient-21)"/>
          <g id="Group_24187" data-name="Group 24187">
            <path id="Path_9848" data-name="Path 9848" d="M85.263,85.254v5.765L81.5,93.189v-5.8a8.72,8.72,0,0,1-7.122.08l2.007-6.547a7.748,7.748,0,0,0,7.178-.15,4.37,4.37,0,0,0,2.487-3.584c0-4.484-10.428,4.25-10.428-5.1A14.836,14.836,0,0,1,81.5,60.822V55.283l3.759-2.17v5.5a9.562,9.562,0,0,1,6.189-.747L89.5,64.456a10.352,10.352,0,0,0-6.387.862,3.628,3.628,0,0,0-2.063,3c0,4.371,10.428-4.137,10.428,5.359,0,4.635-2.657,8.881-6.218,11.578Z" fill="#06daae"/>
          </g>
          <path id="Path_9849" data-name="Path 9849" d="M76.883,58.113,81.5,60.822V55.283l-4.621-2.709Z" fill="#236568"/>
          <path id="Path_9850" data-name="Path 9850" d="M76.389,80.92l-4.621-2.709-2.007,6.547,4.621,2.709Z" fill="#2f878a"/>
        </g>
      </g>
    </g>
  </g>
</svg>
