<svg xmlns="http://www.w3.org/2000/svg" xmlns:xlink="http://www.w3.org/1999/xlink" width="41.982" height="42.839" viewBox="0 0 41.982 42.839">
  <defs>
    <clipPath id="clip-path">
      <rect id="Rectangle_6371" data-name="Rectangle 6371" width="41.982" height="42.839" rx="7" transform="translate(266.75 52.082)" fill="#26dc69"/>
    </clipPath>
  </defs>
  <g id="Mask_Group_263" data-name="Mask Group 263" transform="translate(-266.75 -52.082)" clip-path="url(#clip-path)">
    <path id="goal_1_" data-name="goal (1)" d="M38.9,10.04,40.937,8a1.23,1.23,0,0,0-.766-2.1L36.393,5.59l-.319-3.777a1.23,1.23,0,0,0-2.1-.766L31.943,3.082A20.992,20.992,0,0,0,6.148,35.834,20.992,20.992,0,0,0,38.9,10.04ZM34.029,6.831a1.23,1.23,0,0,0,1.122,1.122l2.173.183-2.942,2.942-3.208-.271L30.9,7.6l2.942-2.942Zm-8.856,14.16A4.186,4.186,0,1,1,22.947,17.3l-2.825,2.825a1.23,1.23,0,1,0,1.739,1.739l2.825-2.825a4.154,4.154,0,0,1,.487,1.955Zm-.438-5.483a6.649,6.649,0,1,0,1.74,1.74l3.512-3.512A11.575,11.575,0,1,1,28.246,12Zm9.36,18.586A18.531,18.531,0,1,1,7.888,7.888a18.54,18.54,0,0,1,22.26-3.011L28.761,6.264a1.23,1.23,0,0,0-.36.838c0,.045,0,.09,0,.135L28.57,9.2a14.033,14.033,0,1,0,4.213,4.213l1.962.166c.035,0,.069,0,.1,0h.018l.049,0c.027,0,.053,0,.08-.006l.049-.007.077-.015.048-.012.074-.023.047-.017c.024-.009.048-.02.071-.031l.045-.021c.024-.012.047-.026.07-.039l.041-.024c.024-.016.048-.033.071-.051l.033-.024a1.219,1.219,0,0,0,.1-.086l1.387-1.387a18.54,18.54,0,0,1-3.011,22.26Zm0,0" transform="translate(266.75 52.511)" fill="#26dc69"/>
  </g>
</svg>
