<svg xmlns="http://www.w3.org/2000/svg" xmlns:xlink="http://www.w3.org/1999/xlink" width="109" height="109" viewBox="0 0 109 109">
  <defs>
    <clipPath id="clip-path">
      <rect id="Rectangle_2563" data-name="Rectangle 2563" width="109" height="109" transform="translate(722 1090)" fill="#fff" stroke="#707070" stroke-width="1"/>
    </clipPath>
    <linearGradient id="linear-gradient" x1="0.473" y1="0.339" x2="0.571" y2="0.272" gradientUnits="objectBoundingBox">
      <stop offset="0" stop-color="#43386b"/>
      <stop offset="1" stop-color="#a996eb"/>
    </linearGradient>
    <linearGradient id="linear-gradient-2" x1="0.383" y1="0.5" x2="0.52" y2="0.5" gradientUnits="objectBoundingBox">
      <stop offset="0" stop-color="#cc8241"/>
      <stop offset="1" stop-color="#dea861"/>
    </linearGradient>
    <linearGradient id="linear-gradient-3" x1="0.222" y1="0.231" x2="0.736" y2="0.728" gradientUnits="objectBoundingBox">
      <stop offset="0" stop-color="#dea861"/>
      <stop offset="1" stop-color="#ebcba0"/>
    </linearGradient>
  </defs>
  <g id="Mask_Group_235" data-name="Mask Group 235" transform="translate(-722 -1090)" clip-path="url(#clip-path)">
    <g id="smartphone_4_" data-name="smartphone (4)" transform="translate(722 1090)">
      <path id="Path_9851" data-name="Path 9851" d="M62.053,3.417,56.473.239v0a2.088,2.088,0,0,0-2.187.149l-31.526,18.2a7.89,7.89,0,0,0-3.295,6.295v78.065a2.806,2.806,0,0,0,1.264,2.725v0l5.549,3.16Z" fill="url(#linear-gradient)"/>
      <path id="Path_9852" data-name="Path 9852" d="M59.834,90.4,28.308,108.6c-1.82,1.051-3.295-.065-3.295-2.491V28.049a7.89,7.89,0,0,1,3.295-6.295l31.526-18.2c1.82-1.051,3.295.065,3.295,2.491V84.108A7.89,7.89,0,0,1,59.834,90.4Z" fill="#7662bd"/>
      <path id="Path_9853" data-name="Path 9853" d="M28.6,26.954,59.834,8.919v71.26L28.6,98.214Z" fill="#fff"/>
      <path id="Path_9854" data-name="Path 9854" d="M43.47,92.253l5.952-3.436V94.8L43.47,98.232Z" fill="#594a8e"/>
      <g id="Group_24191" data-name="Group 24191">
        <path id="Path_9855" data-name="Path 9855" d="M35.085,40.535,54.05,29.585V48.638L35.085,59.588Z" fill="#dea861"/>
        <path id="Path_9856" data-name="Path 9856" d="M37.962,62.758,51.173,55.13v3.75L37.962,66.508Z" fill="#d7d1eb"/>
        <path id="Path_9857" data-name="Path 9857" d="M39.988,71.8l9.159-5.288v5.244L39.988,77.04Z" fill="#f7e041"/>
        <path id="Path_9858" data-name="Path 9858" d="M42.689,36.18l3.758-2.17v5.945l-3.758,2.17Z" fill="#cc8241"/>
        <g id="Group_24190" data-name="Group 24190">
          <path id="Path_9859" data-name="Path 9859" d="M36.447,51.478l6.242-3.6v1.175l-6.242,3.6Z" fill="#8b451c"/>
          <path id="Path_9860" data-name="Path 9860" d="M36.447,53.574l4.739-2.736v.892l-4.739,2.736Z" fill="#8b451c"/>
          <path id="Path_9861" data-name="Path 9861" d="M36.447,55.193l4.739-2.736v.892l-4.739,2.736Z" fill="#8b451c"/>
        </g>
      </g>
      <g id="Group_24193" data-name="Group 24193">
        <path id="Path_9862" data-name="Path 9862" d="M89.535,92.757v-23.9L51.173,70.5V94.4a1.611,1.611,0,0,0,.813,1.408l15.2,8.774a3.493,3.493,0,0,0,3.493,0L88.722,94.165A1.611,1.611,0,0,0,89.535,92.757Z" fill="url(#linear-gradient-2)"/>
        <path id="Path_9863" data-name="Path 9863" d="M51.986,69.092,70.032,58.674a3.493,3.493,0,0,1,3.493,0l15.2,8.774a1.626,1.626,0,0,1,0,2.816L70.676,80.683a3.494,3.494,0,0,1-3.493,0l-15.2-8.774A1.626,1.626,0,0,1,51.986,69.092Z" fill="url(#linear-gradient-3)"/>
        <path id="Path_9864" data-name="Path 9864" d="M57.837,65.714,77.22,76.9l5.141-2.968L62.979,62.746Z" fill="#dea861"/>
        <g id="Group_24192" data-name="Group 24192">
          <path id="Path_9865" data-name="Path 9865" d="M60.91,63.938l19.382,11.19-1.007.582L59.9,64.52Z" fill="#cc8241"/>
          <path id="Path_9866" data-name="Path 9866" d="M77.22,76.9v4.246l5.141-2.968V73.936Z" fill="#cc8241"/>
        </g>
      </g>
    </g>
  </g>
</svg>
