<svg xmlns="http://www.w3.org/2000/svg" width="30.923" height="34.056" viewBox="0 0 30.923 34.056">
  <g id="playstore" transform="translate(0 0)">
    <g id="Group_21" data-name="Group 21" transform="translate(0 0.001)">
      <path id="Path_666" data-name="Path 666" d="M70.205,11.693C66.249,9.48,59.9,5.927,50.05.412A2.375,2.375,0,0,0,47.962.14l16.9,16.9Z" transform="translate(-46.338 -0.012)" fill="#32bbff"/>
      <path id="Path_667" data-name="Path 667" d="M25.173,1.93a2.428,2.428,0,0,0-.359.154A2.376,2.376,0,0,0,23.549,4.2V33.46a2.376,2.376,0,0,0,1.265,2.113,2.458,2.458,0,0,0,.359.154l16.9-16.9Z" transform="translate(-23.549 -1.802)" fill="#32bbff"/>
      <path id="Path_668" data-name="Path 668" d="M64.855,255.98l-16.9,16.9a2.35,2.35,0,0,0,2.089-.273c9.551-5.349,15.83-8.86,19.832-11.091l.328-.184Z" transform="translate(-46.333 -238.954)" fill="#32bbff"/>
    </g>
    <path id="Path_669" data-name="Path 669" d="M23.549,255.98v14.632a2.376,2.376,0,0,0,1.265,2.113,2.464,2.464,0,0,0,.359.154l16.9-16.9Z" transform="translate(-23.549 -238.953)" fill="#2c9fd9"/>
    <path id="Path_670" data-name="Path 670" d="M45.008.4A2.382,2.382,0,0,0,42.561.282l17,17,5.6-5.6C61.207,9.469,54.857,5.916,45.008.4Z" transform="translate(-41.296 0)" fill="#29cc5e"/>
    <path id="Path_671" data-name="Path 671" d="M59.562,252.126l-17,17a2.366,2.366,0,0,0,2.447-.119c9.551-5.349,15.83-8.86,19.832-11.091l.328-.184Z" transform="translate(-41.296 -235.356)" fill="#d93f21"/>
    <path id="Path_672" data-name="Path 672" d="M307.217,178.386A2.37,2.37,0,0,0,306,176.3s-1.517-.846-6.165-3.446l-5.529,5.529,5.534,5.534c4.6-2.581,6.159-3.452,6.159-3.452A2.37,2.37,0,0,0,307.217,178.386Z" transform="translate(-276.294 -161.359)" fill="#ffd500"/>
    <path id="Path_673" data-name="Path 673" d="M306,258.063a2.37,2.37,0,0,0,1.22-2.083H294.3l5.534,5.534C304.435,258.933,306,258.063,306,258.063Z" transform="translate(-276.294 -238.953)" fill="#fa0"/>
  </g>
</svg>
