<svg xmlns="http://www.w3.org/2000/svg" xmlns:xlink="http://www.w3.org/1999/xlink" width="41.982" height="42.839" viewBox="0 0 41.982 42.839">
  <defs>
    <clipPath id="clip-path">
      <rect id="Rectangle_6371" data-name="Rectangle 6371" width="41.982" height="42.839" rx="7" transform="translate(266.75 52.082)" fill="#fd4463"/>
    </clipPath>
  </defs>
  <g id="Mask_Group_261" data-name="Mask Group 261" transform="translate(-266.75 -52.082)" clip-path="url(#clip-path)">
    <g id="eye-2-line" transform="translate(266.75 52.511)">
      <path id="Path_13228" data-name="Path 13228" d="M0,0H41.982V41.982H0Z" fill="none"/>
      <path id="Path_13229" data-name="Path 13229" d="M20.991,3.5A17.493,17.493,0,1,1,3.5,20.991,17.492,17.492,0,0,1,20.991,3.5Zm0,3.5A13.994,13.994,0,1,0,34.985,20.991,13.994,13.994,0,0,0,20.991,7Zm0,5.248a8.746,8.746,0,1,1-8.361,6.17,4.374,4.374,0,1,0,5.785-5.785,8.764,8.764,0,0,1,2.577-.385Z" fill="#fd4463"/>
    </g>
  </g>
</svg>
