<?xml version="1.0" standalone="no"?>
<!DOCTYPE svg PUBLIC "-//W3C//DTD SVG 1.1//EN" "http://www.w3.org/Graphics/SVG/1.1/DTD/svg11.dtd" >
<svg xmlns="http://www.w3.org/2000/svg">
<metadata>Generated by IcoMoon</metadata>
<defs>
<font id="icomoon" horiz-adv-x="1024">
<font-face units-per-em="1024" ascent="960" descent="-64" />
<missing-glyph horiz-adv-x="1024" />
<glyph unicode="&#x20;" horiz-adv-x="512" d="" />
<glyph unicode="&#xe900;" d="M569.269 864c4.436 1.708 9.568 2.698 14.931 2.698 13.209 0 25.015-6.002 32.842-15.428l0.057-0.070 28.8-34.859c6.401-7.725 15.368-13.126 25.58-14.897l0.254-0.037 44.576-7.467c17.95-3.097 31.911-17.058 34.972-34.754l0.036-0.254 7.467-44.576c1.807-10.466 7.209-19.433 14.863-25.778l0.071-0.057 34.859-28.8c9.469-7.882 15.453-19.673 15.453-32.861 0-5.361-0.989-10.491-2.794-15.218l0.098 0.293-15.765-42.336c-1.709-4.436-2.699-9.569-2.699-14.933s0.99-10.497 2.797-15.226l-0.098 0.293 15.765-42.336c1.708-4.436 2.698-9.568 2.698-14.931 0-13.209-6.002-25.015-15.428-32.842l-0.070-0.057-34.859-28.8c-7.725-6.401-13.126-15.368-14.897-25.58l-0.037-0.254-7.467-44.576c-3.097-17.95-17.058-31.911-34.754-34.972l-0.254-0.036-44.576-7.467c-10.466-1.807-19.433-7.209-25.778-14.863l-0.057-0.071-28.8-34.859c-7.882-9.469-19.673-15.453-32.861-15.453-5.361 0-10.491 0.989-15.218 2.794l0.293-0.098-42.336 15.765c-4.436 1.709-9.569 2.699-14.933 2.699s-10.497-0.99-15.226-2.797l0.293 0.098-42.336-15.765c-4.436-1.708-9.568-2.698-14.931-2.698-13.209 0-25.015 6.002-32.842 15.428l-0.057 0.070-28.8 34.859c-6.401 7.725-15.368 13.126-25.58 14.897l-0.254 0.037-44.576 7.467c-17.95 3.097-31.911 17.058-34.972 34.754l-0.036 0.254-7.467 44.576c-1.807 10.466-7.209 19.433-14.863 25.778l-0.071 0.057-34.816 28.768c-9.494 7.883-15.495 19.689-15.495 32.896 0 5.36 0.988 10.489 2.793 15.216l-0.098-0.293 15.765 42.336c1.709 4.436 2.699 9.569 2.699 14.933s-0.99 10.497-2.797 15.226l0.098-0.293-15.765 42.336c-1.708 4.436-2.698 9.568-2.698 14.931 0 13.209 6.002 25.015 15.428 32.842l0.070 0.057 34.859 28.8c7.725 6.401 13.126 15.368 14.897 25.58l0.037 0.254 7.467 44.576c3.097 17.95 17.058 31.911 34.754 34.972l0.254 0.036 44.576 7.467c10.466 1.807 19.433 7.209 25.778 14.863l0.057 0.071 28.8 34.859c7.882 9.469 19.673 15.453 32.861 15.453 5.361 0 10.491-0.989 15.218-2.794l-0.293 0.098 42.336-15.765c4.436-1.709 9.569-2.699 14.933-2.699s10.497 0.99 15.226 2.797l-0.293-0.098z" />
<glyph unicode="&#xe901;" d="M584.176 845.401c-2.545 0-5.051-0.454-7.45-1.349l-42.349-15.805c-7.182-2.681-14.711-4.040-22.378-4.040s-15.195 1.359-22.378 4.040l-42.349 15.805c-2.398 0.895-4.904 1.349-7.448 1.349-6.396-0.001-12.397-2.828-16.465-7.756l-28.772-34.861c-9.804-11.879-23.569-19.826-38.759-22.378l-44.577-7.487c-8.965-1.506-16-8.541-17.505-17.505l-7.487-44.577c-2.551-15.19-10.498-28.955-22.377-38.759l-34.862-28.773c-7.011-5.786-9.586-15.396-6.407-23.912l15.805-42.348c5.386-14.431 5.386-30.325 0-44.755l-15.805-42.349c-3.178-8.516-0.604-18.126 6.407-23.912l34.861-28.772c11.879-9.804 19.827-23.569 22.377-38.759l7.487-44.577c1.506-8.965 8.541-16 17.505-17.505l44.577-7.487c15.19-2.551 28.955-10.498 38.759-22.377l28.773-34.861c4.068-4.929 10.069-7.756 16.463-7.756 2.545 0 5.051 0.454 7.449 1.349l42.348 15.805c7.182 2.681 14.711 4.040 22.378 4.040s15.195-1.359 22.378-4.040l42.349-15.805c2.398-0.895 4.904-1.349 7.449-1.349 6.394 0 12.395 2.827 16.463 7.756l28.772 34.861c9.804 11.879 23.569 19.826 38.759 22.377l44.577 7.487c8.965 1.506 16 8.54 17.505 17.505l7.487 44.577c2.551 15.19 10.498 28.955 22.378 38.759l34.862 28.773c7.011 5.786 9.586 15.396 6.407 23.912l-15.805 42.349c-5.385 14.43-5.385 30.325 0 44.755l15.805 42.348c3.178 8.516 0.604 18.126-6.407 23.912l-34.861 28.772c-11.879 9.804-19.826 23.569-22.378 38.759l-7.487 44.577c-1.506 8.965-8.541 16-17.505 17.505l-44.577 7.487c-15.19 2.551-28.955 10.498-38.759 22.377l-28.773 34.862c-4.068 4.929-10.069 7.756-16.463 7.756zM584.176 866.734c12.485 0 24.645-5.488 32.916-15.51l28.773-34.862c6.537-7.92 15.711-13.217 25.839-14.918l44.577-7.487c17.94-3.013 31.997-17.070 35.010-35.010l7.487-44.577c1.701-10.128 6.998-19.302 14.918-25.839l34.861-28.773c14.030-11.58 19.175-30.782 12.815-47.825l-15.805-42.348c-3.591-9.621-3.591-20.215 0-29.837l15.805-42.348c6.361-17.043 1.216-36.245-12.815-47.825l-34.861-28.773c-7.92-6.537-13.217-15.712-14.918-25.839l-7.487-44.577c-3.013-17.94-17.070-31.997-35.010-35.010l-44.577-7.487c-10.128-1.701-19.302-6.998-25.839-14.918l-28.773-34.861c-11.58-14.030-30.781-19.175-47.825-12.815l-42.348 15.805c-9.621 3.591-20.215 3.591-29.837 0l-42.348-15.805c-17.043-6.361-36.245-1.215-47.825 12.815l-28.773 34.861c-6.537 7.92-15.711 13.217-25.839 14.918l-44.577 7.487c-17.94 3.013-31.997 17.070-35.010 35.010l-7.487 44.577c-1.701 10.128-6.998 19.302-14.918 25.839l-34.861 28.772c-14.030 11.58-19.175 30.781-12.815 47.825l15.805 42.348c3.591 9.621 3.591 20.215 0 29.837l-15.805 42.348c-6.361 17.043-1.216 36.245 12.815 47.825l34.861 28.773c7.92 6.537 13.217 15.711 14.918 25.839l7.487 44.577c3.013 17.94 17.070 31.997 35.010 35.010l44.577 7.487c10.128 1.701 19.302 6.998 25.839 14.918l28.773 34.861c11.58 14.030 30.781 19.175 47.825 12.815l42.348-15.805c9.621-3.591 20.215-3.591 29.837 0l42.349 15.805c4.869 1.817 9.915 2.695 14.909 2.695z" />
<glyph unicode="&#xe902;" d="M704 554.667c0-106.039-85.961-192-192-192s-192 85.961-192 192c0 106.039 85.961 192 192 192s192-85.961 192-192z" />
<glyph unicode="&#xe903;" d="M508.576 492.96h-20.811l-3.2 44.8c-0.163 1.759-1.627 3.126-3.412 3.136h-0.086c-1.826-0.064-3.284-1.549-3.307-3.379v-0.002c0-0.085 0-0.16 0-0.245v0l3.2-44.32h-20.917l-11.243 66.56c-0.248 1.395-1.308 2.487-2.665 2.78l-0.023 0.004c-17.325 3.644-30.145 18.799-30.145 36.949 0 20.831 16.887 37.717 37.717 37.717 0.004 0 0.008 0 0.012 0h-0.001c0.853 0 1.728 0 2.581-0.085 19.715-1.359 35.193-17.681 35.2-37.621v-0.001c0-1.894 1.535-3.429 3.429-3.429s3.429 1.535 3.429 3.429v0c0 0.017 0 0.036 0 0.056 0 15.553-7.994 29.239-20.098 37.173l-0.169 0.104c8.687 8.689 20.688 14.063 33.945 14.063 21.948 0 40.455-14.731 46.175-34.845l0.082-0.338c0.413-1.464 1.737-2.518 3.307-2.518 1.894 0 3.43 1.536 3.43 3.43 0 0.325-0.045 0.639-0.129 0.936l0.006-0.024c-1.835 6.537-4.638 12.246-8.291 17.3l0.109-0.159c3.989 1.593 8.612 2.517 13.451 2.517 0.011 0 0.022 0 0.033 0h0.094c0.013 0 0.028 0 0.044 0 20.831 0 37.717-16.887 37.717-37.717 0-18.15-12.82-33.306-29.899-36.906l-0.246-0.043c-1.378-0.299-2.437-1.39-2.685-2.763l-0.003-0.021-11.253-66.549h-20.843l3.2 44.32c0 0.085 0 0.16 0 0.245-0.022 1.832-1.481 3.317-3.301 3.381h-0.134c-1.786-0.010-3.25-1.377-3.412-3.122l-3.201-44.814h-20.832v37.717c0 1.894-1.535 3.429-3.429 3.429s-3.429-1.535-3.429-3.429v0-37.707z" />
<glyph unicode="&#xe904;" d="M563.424 458.688h-102.848v27.424h102.848v-27.424z" />
<glyph unicode="&#xe905;" d="M238.827 794.101l266.667 80c1.146 0.356 2.464 0.561 3.829 0.561s2.683-0.205 3.924-0.586l-0.095 0.025 266.667-80c5.549-1.697 9.515-6.773 9.515-12.775 0-0.009 0-0.018 0-0.027v0.001-293.333c0-117.888-179.776-222.763-276.043-252.736-1.196-0.39-2.572-0.614-4-0.614s-2.804 0.225-4.094 0.64l0.094-0.026c-96.16 30.016-275.936 134.901-275.936 252.779v293.323c0 0.002 0 0.004 0 0.006 0 5.986 3.945 11.051 9.378 12.737l0.094 0.025z" />
<glyph unicode="&#xe906;" d="M509.329 852.976l-258.641-77.592v-287.373c0-23.283 8.706-47.836 25.876-72.977 15.934-23.331 38.768-46.74 67.869-69.576 57.698-45.278 124.236-76.038 164.857-89.073 40.645 13.028 107.225 43.786 164.95 89.073 29.105 22.834 51.943 46.242 67.879 69.575 17.171 25.14 25.877 49.693 25.877 72.977v287.365l-258.667 77.6zM509.329 874.661c1.289 0 2.579-0.187 3.827-0.561l266.654-79.996c5.647-1.686 9.518-6.88 9.519-12.773v-293.321c0-117.888-179.778-222.764-276.041-252.735-2.604-0.819-5.396-0.819-8 0-96.156 29.972-275.934 134.848-275.934 252.735v293.322c-0.001 5.886 3.857 11.077 9.493 12.772l266.654 79.996c1.248 0.374 2.537 0.561 3.827 0.561z" />
<glyph unicode="&#xe907;" d="M512.021 746.667c106.039 0 192-85.961 192-192s-85.961-192-192-192c-106.039 0-192 85.961-192 192v0c0 106.039 85.961 192 192 192v0z" />
<glyph unicode="&#xe908;" d="M512 682.667l38.4-81.643 89.6-11.253-65.867-61.707 16.971-88.597-79.104 43.509-79.104-43.509 16.971 88.597-65.867 61.707 89.6 11.253z" />
<glyph unicode="&#xe909;" d="M444.651 266.667h-167.317c-47.128 0-85.333 38.205-85.333 85.333v0 405.333c0 47.128 38.205 85.333 85.333 85.333v0h469.333c47.128 0 85.333-38.205 85.333-85.333v0-405.333c0-47.128-38.205-85.333-85.333-85.333v0h-167.317l-67.349-67.349z" />
<glyph unicode="&#xe90a;" d="M511.997 229.492l58.511 58.508h176.161c35.29 0 64.001 28.711 64.001 64.001v405.331c0 35.29-28.711 64.001-64.001 64.001h-469.334c-35.29 0-64.001-28.711-64.001-64.001v-405.331c0-35.29 28.711-64.001 64.001-64.001h176.155l58.508-58.508zM511.997 199.323l-67.344 67.344h-167.318c-47.126 0-85.334 38.208-85.334 85.334v405.331c0 47.126 38.208 85.334 85.334 85.334h469.334c47.126 0 85.334-38.208 85.334-85.334v-405.331c0-47.126-38.208-85.334-85.334-85.334h-167.325l-67.347-67.344z" />
<glyph unicode="&#xe90b;" d="M512 746.667c106.039 0 192-85.961 192-192s-85.961-192-192-192c-106.039 0-192 85.961-192 192v0c0 106.039 85.961 192 192 192v0z" />
<glyph unicode="&#xe90c;" d="M557.003 629.333c-0.054 0-0.118 0-0.182 0-10.701 0-20.539-3.698-28.305-9.885l0.092 0.071c-6.77-5.45-12.334-12.090-16.439-19.639l-0.169-0.34c-4.274 7.889-9.838 14.529-16.483 19.882l-0.125 0.097c-7.674 6.116-17.512 9.814-28.213 9.814-0.064 0-0.128 0-0.191 0h0.010c-28.341-0.573-51.096-23.683-51.096-52.107 0-1.129 0.036-2.25 0.107-3.362l-0.008 0.152c0-34.069 27.349-57.376 68.768-92.672 7.029-5.995 14.997-12.8 23.285-20.032 1.050-0.921 2.435-1.484 3.952-1.484s2.902 0.562 3.959 1.49l-0.007-0.006c8.288 7.243 16.256 14.037 23.296 20.032 41.397 35.296 68.747 58.603 68.747 92.672 0.063 0.96 0.099 2.081 0.099 3.21 0 28.425-22.755 51.534-51.043 52.106l-0.053 0.001z" />
<glyph unicode="&#xe90d;" d="M704 554.667c0-106.039-85.961-192-192-192s-192 85.961-192 192c0 106.039 85.961 192 192 192s192-85.961 192-192z" />
<glyph unicode="&#xe90e;" d="M512 844.104c-11.064 0-22.189-2.52-32.173-7.287l-182.698-87.237c-20.66-9.865-35.455-28.319-40.59-50.63l-44.854-194.855c-5.166-22.44 0.149-45.602 14.581-63.546l126.015-156.679c14.246-17.712 35.453-27.871 58.183-27.871h203.074c22.73 0 43.937 10.159 58.183 27.871l126.015 156.679c14.432 17.944 19.746 41.105 14.581 63.546l-44.855 194.856c-5.136 22.311-19.931 40.765-40.59 50.63l-182.697 87.237c-9.984 4.767-21.109 7.287-32.173 7.287zM512 854.771c12.571 0 25.142-2.776 36.769-8.328l182.697-87.237c23.474-11.209 40.554-32.513 46.389-57.862l44.855-194.855c5.866-25.482-0.275-52.248-16.664-72.624l-126.015-156.679c-16.198-20.139-40.65-31.852-66.495-31.852h-203.074c-25.845 0-50.297 11.713-66.495 31.852l-126.015 156.679c-16.388 20.376-22.53 47.141-16.664 72.624l44.854 194.855c5.835 25.35 22.915 46.654 46.389 57.863l182.697 87.237c11.628 5.552 24.199 8.328 36.77 8.328z" />
<glyph unicode="&#xe90f;" d="M608 591.019c11.782 0 21.333-9.551 21.333-21.333v0-42.667c0-11.782-9.551-21.333-21.333-21.333v0h-11.328c-5.484-42.315-41.296-74.667-84.664-74.667-0.003 0-0.006 0-0.008 0h0.001v21.333c35.346 0 64 28.654 64 64v0 64c0 35.346-28.654 64-64 64s-64-28.654-64-64v0-74.667h-32c-11.782 0-21.333 9.551-21.333 21.333v0 42.667c0 11.782 9.551 21.333 21.333 21.333v0h11.328c5.455 42.345 41.281 74.73 84.672 74.73s79.217-32.385 84.627-74.303l0.045-0.427zM466.773 507.979l11.307 18.133c9.629-6.098 21.352-9.717 33.92-9.717s24.291 3.619 34.183 9.872l-0.263-0.155 11.307-18.133c-12.838-8.132-28.469-12.959-45.227-12.959s-32.389 4.827-45.577 13.167l0.351-0.207z" />
<glyph unicode="&#xe910;" d="M669.455 855.191c-86.735 0-162.4-47.394-202.511-117.699l-0.602-1.146c-40.703 71.432-116.341 118.821-203.050 118.844h-0.004c-130.282-7.258-233.18-114.674-233.18-246.124 0-0.74 0.003-1.48 0.010-2.219l-0.001 0.113c0-323.403 436.224-549.045 436.224-549.045s436.224 225.641 436.224 549.045c0.006 0.627 0.009 1.368 0.009 2.109 0 131.428-102.864 238.831-232.476 246.092l-0.643 0.029z" />
<glyph unicode="&#xe911;" d="M90.353 606.961c0 0.104 0 0.228 0 0.351 0 122.051 87.534 223.658 203.248 245.467l1.552 0.243c-9.509 1.38-20.489 2.169-31.653 2.169-0.074 0-0.149 0-0.223 0h0.012c-130.282-7.258-233.18-114.674-233.18-246.124 0-0.74 0.003-1.48 0.010-2.219l-0.001 0.113c0-323.403 436.224-549.045 436.224-549.045s11.264 6.024 30.118 16.926c-98.605 57.946-406.106 260.518-406.106 532.119z" />
<glyph unicode="&#xe912;" d="M925.189 200.859v514.884l-826.377-35.455v-514.818c0-0.058-0.001-0.126-0.001-0.194 0-12.841 6.976-24.052 17.345-30.051l0.167-0.089 327.361-188.998c10.793-6.338 23.772-10.082 37.625-10.082s26.832 3.743 37.98 10.274l-0.355-0.192 388.735 224.434c10.541 6.087 17.521 17.301 17.521 30.146 0 0.050 0 0.1 0 0.15v-0.008z" />
<glyph unicode="&#xe913;" d="M116.323 710.614l388.744 224.444c10.793 6.338 23.772 10.082 37.625 10.082s26.832-3.743 37.98-10.274l-0.355 0.192 327.361-189.008c10.547-6.167 17.519-17.437 17.519-30.335s-6.972-24.168-17.353-30.245l-0.165-0.090-388.744-224.434c-10.793-6.338-23.772-10.082-37.625-10.082s-26.832 3.743-37.98 10.274l0.355-0.192-327.351 189.036c-10.547 6.167-17.519 17.437-17.519 30.335s6.972 24.168 17.353 30.245l0.165 0.090z" />
<glyph unicode="&#xe914;" d="M242.378 783.383l417.52-241.063 110.752 63.948-417.52 241.063z" />
<glyph unicode="&#xe915;" d="M659.898 542.33v-514.17l110.752 63.948v514.17z" />
<glyph unicode="&#xe916;" d="M814.268 800.115l-479.288-276.959-110.752 63.93 479.288 276.969z" />
<glyph unicode="&#xe917;" d="M334.98 523.156v-514.17l-110.752 63.93v514.17z" />
<glyph unicode="&#xe918;" d="M554.557 747.431c-3.884 4.776-6.237 10.933-6.237 17.639 0 3.17 0.526 6.218 1.495 9.060l-0.059-0.198c15.031 45.385 57.673 161.585 128.705 183.118 66.363 20.114 149.889-66.081 96.961-147.935-42.153-65.188-142.082-84.391-181.051-89.511-1.116-0.157-2.405-0.247-3.715-0.247-8.791 0-16.638 4.038-21.789 10.36l-0.040 0.051z" />
<glyph unicode="&#xe919;" d="M728.346 863.566c31.274 17.107 47.752-2.396 37.080-33.961s-65.329-61.656-97.787-77.533c-22.363-10.025-48.325-17.593-75.485-21.428l-1.55-0.179s106.468 115.994 137.742 133.101z" />
<glyph unicode="&#xe91a;" d="M595.611 817.57c-3.63 0.583-7.815 0.916-12.077 0.916-12.823 0-24.942-3.012-35.689-8.368l0.465 0.21q-2.969-1.522-5.712-3.297l-82.803-47.837c-16.5-8.887-29.173-23.088-35.893-40.273l-0.182-0.528c-8.605-67.208 53.549-99.807 98.060-74.113l88.956 51.36c44.539 25.647 47.386 95.786-15.125 121.931z" />
<glyph unicode="&#xe91b;" d="M472.994 713.31c-4.994 7.873-13.625 13.048-23.471 13.152h-0.015c-47.809 0.535-171.562-1.954-215.021-62.116-40.612-56.207 13.725-163.239 108.337-139.818 75.334 18.657 125.961 106.9 143.529 142.082 1.871 3.661 2.968 7.986 2.968 12.566 0 5.519-1.592 10.667-4.342 15.009l0.068-0.115z" />
<glyph unicode="&#xe91c;" d="M306.636 586.766c-26.352-24.003-13.274-45.939 20.048-46.108s79.553 41.721 105.134 67.246c17.506 19.033 32.654 40.654 44.721 64.119l0.767 1.642s-144.318-62.896-170.67-86.899z" />
<glyph unicode="&#xe91d;" d="M638.441 894.426v0l-102.043 58.941c-4.844 4.131-11.177 6.644-18.097 6.644-5.165 0-10.002-1.4-14.154-3.841l0.131 0.071-382.224-220.724c-22.332-13.071-37.095-36.94-37.099-64.258v0-644.951c0-0.039 0-0.085 0-0.131 0-9.929 5.206-18.642 13.037-23.559l0.116-0.068 0.479-0.272 0.939-0.554 102.203-59.044c4.845-4.135 11.182-6.652 18.106-6.652 5.176 0 10.024 1.406 14.182 3.858l-0.131-0.071 382.234 220.714c22.332 13.071 37.095 36.94 37.099 64.258v0 644.913c0 0.038 0 0.082 0 0.126 0 10.599-5.918 19.816-14.63 24.527l-0.148 0.073z" />
<glyph unicode="&#xe91e;" d="M228.765 673.393l382.234 220.686c4.029 2.354 8.87 3.743 14.035 3.743 15.54 0 28.143-12.578 28.183-28.109v-644.964c-0.018-27.304-14.777-51.156-36.749-64.031l-0.35-0.19-382.234-220.677c-4.027-2.35-8.864-3.738-14.026-3.738-15.525 0-28.119 12.554-28.183 28.064v644.966c0.005 27.313 14.764 51.178 36.74 64.059l0.35 0.19z" />
<glyph unicode="&#xe91f;" d="M236.582 598.086l376.456 217.342v-117.046l-376.456-217.342z" />
<glyph unicode="&#xe920;" d="M357.902 472.351v0l-19.954 11.48c-3.537 1.625-7.675 2.573-12.033 2.573-6.363 0-12.253-2.019-17.067-5.452l0.090 0.061c-25.093-14.486-45.432-53.351-45.432-86.815 0-18.394 6.153-31.302 15.858-36.808v0l18.188-10.512c3.842-2.017 8.395-3.201 13.224-3.201 6.32 0 12.166 2.027 16.923 5.467l-0.085-0.058c25.093 14.486 45.432 53.351 45.432 86.815 0 17.953-5.862 30.692-15.163 36.413z" />
<glyph unicode="&#xe921;" d="M373.074 435.937c0 33.454-20.339 48.851-45.432 34.346s-45.432-53.351-45.432-86.815 20.339-48.851 45.432-34.346 45.432 53.351 45.432 86.815z" />
<glyph unicode="&#xe922;" d="M471.998 538.375v0l-19.935 11.48c-3.537 1.625-7.675 2.573-12.033 2.573-6.363 0-12.253-2.019-17.067-5.452l0.090 0.061c-25.093-14.486-45.432-53.351-45.432-86.815 0-18.394 6.153-31.302 15.858-36.808v0l18.216-10.512c3.842-2.017 8.395-3.201 13.224-3.201 6.32 0 12.166 2.027 16.923 5.467l-0.085-0.058c25.093 14.486 45.432 53.351 45.432 86.815 0 17.953-5.862 30.692-15.163 36.413z" />
<glyph unicode="&#xe923;" d="M487.17 501.971c0 33.454-20.339 48.851-45.432 34.346s-45.432-53.351-45.432-86.815 20.339-48.851 45.432-34.346 45.432 53.351 45.432 86.815z" />
<glyph unicode="&#xe924;" d="M586.104 604.268v0l-19.935 11.48c-3.537 1.625-7.675 2.573-12.033 2.573-6.363 0-12.253-2.019-17.067-5.452l0.090 0.061c-25.093-14.486-45.432-53.351-45.432-86.815 0-18.394 6.153-31.302 15.858-36.808v0l18.254-10.512c3.842-2.017 8.395-3.201 13.224-3.201 6.32 0 12.166 2.027 16.923 5.467l-0.085-0.058c25.093 14.486 45.432 53.351 45.432 86.815-0.066 17.99-5.928 30.729-15.228 36.451z" />
<glyph unicode="&#xe925;" d="M601.266 567.855c0 33.454-20.339 48.851-45.432 34.346s-45.432-53.351-45.432-86.815 20.339-48.851 45.432-34.346 45.432 53.389 45.432 86.815z" />
<glyph unicode="&#xe926;" d="M357.902 316.656v0l-19.954 11.48c-3.537 1.625-7.675 2.573-12.033 2.573-6.363 0-12.253-2.019-17.067-5.452l0.090 0.061c-25.093-14.486-45.432-53.351-45.432-86.815 0-18.394 6.153-31.302 15.858-36.808v0l18.188-10.503c3.842-2.017 8.395-3.201 13.224-3.201 6.32 0 12.166 2.027 16.923 5.467l-0.085-0.058c25.093 14.486 45.432 53.351 45.432 86.815 0 17.953-5.862 30.692-15.163 36.413z" />
<glyph unicode="&#xe927;" d="M373.074 280.242c0 33.454-20.339 48.851-45.432 34.346s-45.432-53.351-45.432-86.815 20.339-48.851 45.432-34.346 45.432 53.361 45.432 86.815z" />
<glyph unicode="&#xe928;" d="M471.998 382.689v0l-19.935 11.48c-3.537 1.625-7.675 2.573-12.033 2.573-6.363 0-12.253-2.019-17.067-5.452l0.090 0.061c-25.093-14.486-45.432-53.351-45.432-86.815 0-18.394 6.153-31.302 15.858-36.808v0l18.216-10.512c3.842-2.017 8.395-3.201 13.224-3.201 6.32 0 12.166 2.027 16.923 5.467l-0.085-0.058c25.093 14.486 45.432 53.351 45.432 86.815 0 17.953-5.862 30.692-15.163 36.413z" />
<glyph unicode="&#xe929;" d="M487.17 346.276c0 33.454-20.339 48.851-45.432 34.346s-45.432-53.351-45.432-86.815 20.339-48.851 45.432-34.346 45.432 53.361 45.432 86.815z" />
<glyph unicode="&#xe92a;" d="M586.104 448.573v0l-19.935 11.48c-3.537 1.625-7.675 2.573-12.033 2.573-6.363 0-12.253-2.019-17.067-5.452l0.090 0.061c-25.093-14.486-45.432-53.351-45.432-86.815 0-18.394 6.153-31.302 15.858-36.808v0l18.254-10.503c3.842-2.017 8.395-3.201 13.224-3.201 6.32 0 12.166 2.027 16.923 5.467l-0.085-0.058c25.093 14.486 45.432 53.351 45.432 86.815 0 17.953-5.862 30.692-15.163 36.413z" />
<glyph unicode="&#xe92b;" d="M601.266 412.16c0 33.454-20.339 48.851-45.432 34.346s-45.432-53.351-45.432-86.815 20.339-48.851 45.432-34.346 45.432 53.361 45.432 86.815z" />
<glyph unicode="&#xe92c;" d="M357.902 160.97v0l-19.954 11.48c-3.537 1.625-7.675 2.573-12.033 2.573-6.363 0-12.253-2.019-17.067-5.452l0.090 0.061c-25.093-14.486-45.432-53.351-45.432-86.815 0-18.394 6.153-31.302 15.858-36.808v0l18.188-10.512c3.842-2.017 8.395-3.201 13.224-3.201 6.32 0 12.166 2.027 16.923 5.467l-0.085-0.058c25.093 14.486 45.432 53.351 45.432 86.815 0 17.953-5.862 30.692-15.163 36.413z" />
<glyph unicode="&#xe92d;" d="M373.074 124.557c0 33.454-20.339 48.851-45.432 34.346s-45.432-53.351-45.432-86.815 20.339-48.851 45.432-34.346 45.432 53.351 45.432 86.815z" />
<glyph unicode="&#xe92e;" d="M471.998 226.994v0l-19.935 11.508c-3.537 1.625-7.675 2.573-12.033 2.573-6.363 0-12.253-2.019-17.067-5.452l0.090 0.061c-25.093-14.486-45.432-53.351-45.432-86.815 0-18.394 6.153-31.302 15.858-36.808v0l18.216-10.531c3.842-2.017 8.395-3.201 13.224-3.201 6.32 0 12.166 2.027 16.923 5.467l-0.085-0.058c25.093 14.486 45.432 53.351 45.432 86.815 0 17.953-5.862 30.692-15.163 36.413z" />
<glyph unicode="&#xe92f;" d="M487.17 190.591c0 33.454-20.339 48.851-45.432 34.346s-45.432-53.351-45.432-86.815 20.339-48.851 45.432-34.346 45.432 53.351 45.432 86.815z" />
<glyph unicode="&#xe930;" d="M586.104 292.887v0l-19.935 11.48c-3.537 1.625-7.675 2.573-12.033 2.573-6.363 0-12.253-2.019-17.067-5.452l0.090 0.061c-25.093-14.486-45.432-53.351-45.432-86.815 0-18.394 6.153-31.302 15.858-36.808v0l18.254-10.503c3.842-2.017 8.395-3.201 13.224-3.201 6.32 0 12.166 2.027 16.923 5.467l-0.085-0.058c25.093 14.486 45.432 53.351 45.432 86.815 0 17.953-5.862 30.692-15.163 36.413z" />
<glyph unicode="&#xe931;" d="M601.266 256.474c0 33.454-20.339 48.851-45.432 34.346s-45.432-53.351-45.432-86.815 20.339-48.851 45.432-34.346 45.432 53.351 45.432 86.815z" />
<glyph unicode="&#xe932;" d="M817.763 527.6v0l-72.338 41.627c-28.54 15.125-65.198 12.974-105.218-10.127-91.004-52.543-164.779-193.527-164.779-314.838 0-66.701 22.331-113.542 57.532-133.505v-0.056l66.062-38.142 0.066 0.141c29.038-17.352 67.133-16.102 108.873 7.995 91.051 52.59 164.826 193.508 164.826 314.847 0 65.113-21.26 111.315-55.014 132.058z" />
<glyph unicode="&#xe933;" d="M807.387 532.734c72.715-30.983 87.266-160.296 32.5-288.829s-158.109-207.614-230.825-176.631c-72.715 30.983-87.266 160.296-32.5 288.829s158.109 207.614 230.825 176.631z" />
<glyph unicode="&#xe934;" d="M810.557 307.806l-42.905 25.149c-6.216 3.157-13.553 5.006-21.323 5.006-3.721 0-7.342-0.424-10.819-1.227l0.323 0.063c3.359 3.776 7.272 6.964 11.63 9.463l0.226 0.119c12.378 6.127 26.951 9.711 42.362 9.711 6.237 0 12.336-0.587 18.247-1.709l-0.606 0.096 18.319 61.9-43.421 25.44c-4.384 1.235-9.44 2.005-14.655 2.131l-0.075 0.001v17.079l-43.412 25.487-35.314-20.386v-52.036c-32.4-24.66-53.561-62.648-55.25-105.639l-0.008-0.265c0-26.558 8.972-37.578 21.476-41.176l31.387-18.122c9.188-10.108 23.881-9.855 38.696-7.356-4.529-6.086-10.165-11.077-16.645-14.752l-0.265-0.138c-10.117-5.667-22.201-9.004-35.064-9.004-11.794 0-22.933 2.805-32.786 7.785l0.416-0.191-18.855-61.506 43.412-25.45c6.831-3.509 14.821-5.826 23.281-6.451l0.205-0.012v-21.833l43.384-25.459 35.314 20.386v54.169c33.454 25.365 58.415 65.226 58.415 108.769 0 22.631-6.313 34.356-15.717 39.955z" />
<glyph unicode="&#xe935;" d="M767.868 159.082v-54.159l-35.351-20.386v54.488c-10.060-4.75-21.853-7.524-34.294-7.524-11.794 0-23.005 2.492-33.137 6.979l0.523-0.207 18.855 61.506c9.437-4.788 20.575-7.593 32.369-7.593 12.863 0 24.947 3.337 35.434 9.192l-0.369-0.189c12.986 6.242 22.071 18.762 23.353 33.516l0.011 0.154c0 42.125-97.966-39.927-97.966 47.912 1.708 43.225 22.851 81.185 54.88 105.589l0.341 0.249v52.036l35.314 20.386v-51.67c11.464 5.695 24.967 9.027 39.248 9.027 6.693 0 13.216-0.732 19.491-2.12l-0.596 0.111-18.3-61.91c-5.304 1.026-11.403 1.613-17.64 1.613-15.411 0-29.984-3.585-42.933-9.965l0.57 0.254c-10.835-5.224-18.394-15.718-19.373-28.064l-0.008-0.119c0-41.063 97.966 38.865 97.966-50.345 0-43.543-24.961-83.433-58.415-108.769z" />
<glyph unicode="&#xe936;" d="M689.143 414.058l43.374-25.45v52.036l-43.412 25.45z" />
<glyph unicode="&#xe937;" d="M684.502 199.797l-43.412 25.45-18.855-61.506 43.412-25.45z" />
<glyph unicode="&#xe938;" d="M582.957 927.899l-52.421 29.856c-2.649 1.423-5.796 2.259-9.138 2.259-4.28 0-8.241-1.371-11.466-3.698l0.058 0.040-296.171-170.98c-18.546-13.399-30.575-34.825-30.954-59.079l-0.001-0.059v-733.381c-0.143-1.030-0.224-2.221-0.224-3.43 0-9.26 4.775-17.405 11.997-22.107l0.102-0.062 52.13-29.687z" />
<glyph unicode="&#xe939;" d="M562.11 110.738l-296.171-170.98c-17.098-9.874-30.955 0.611-30.955 23.402v733.334c0.38 24.314 12.409 45.74 30.738 58.989l0.217 0.149 296.171 170.98c17.098 9.874 30.955-0.611 30.955-23.402v-733.362c-0.39-24.303-12.416-45.717-30.738-58.961l-0.217-0.149z" />
<glyph unicode="&#xe93a;" d="M268.683 706.781l293.428 169.43v-669.452l-293.428-169.43z" />
<glyph unicode="&#xe93b;" d="M408.379 93.33l55.916 32.279v-56.207l-55.916-32.242z" />
<glyph unicode="&#xe93c;" d="M329.606 579.194l178.167 102.87v-178.993l-178.167-102.87z" />
<glyph unicode="&#xe93d;" d="M356.634 370.42l124.111 71.661v-35.229l-124.111-71.661z" />
<glyph unicode="&#xe93e;" d="M375.667 285.475l86.044 49.678v-49.265l-86.044-49.641z" />
<glyph unicode="&#xe93f;" d="M401.042 620.107l35.305 20.386v-55.85l-35.305-20.386z" />
<glyph unicode="&#xe940;" d="M342.401 476.39l58.64 33.82v-11.039l-58.64-33.82z" />
<glyph unicode="&#xe941;" d="M342.401 456.699l44.521 25.703v-8.38l-44.521-25.703z" />
<glyph unicode="&#xe942;" d="M342.401 441.49l44.521 25.703v-8.38l-44.521-25.703z" />
<glyph unicode="&#xe943;" d="M841.136 88.595v224.528l-360.392-15.435v-224.528c0-0.024 0-0.052 0-0.080 0-5.601 3.043-10.491 7.565-13.109l0.073-0.039 142.796-82.427c4.707-2.764 10.366-4.396 16.407-4.396s11.701 1.632 16.562 4.48l-0.155-0.084 169.505 97.862c4.595 2.656 7.638 7.546 7.638 13.147 0 0.028 0 0.056 0 0.084v-0.004z" />
<glyph unicode="&#xe944;" d="M488.382 310.916l169.533 97.872c4.707 2.764 10.366 4.396 16.407 4.396s11.701-1.632 16.562-4.48l-0.155 0.084 142.796-82.427c4.597-2.691 7.635-7.604 7.635-13.227s-3.038-10.537-7.563-13.188l-0.072-0.039-169.561-97.881c-4.707-2.763-10.367-4.395-16.407-4.395s-11.701 1.632-16.563 4.479l0.155-0.084-142.796 82.427c-4.593 2.691-7.629 7.603-7.629 13.224 0 5.632 3.048 10.553 7.585 13.201l0.072 0.039z" />
<glyph unicode="&#xe945;" d="M543.349 342.65l182.094-105.087 48.297 27.883-182.084 105.087z" />
<glyph unicode="&#xe946;" d="M572.219 359.335l182.084-105.124-9.46-5.468-182.112 105.124z" />
<glyph unicode="&#xe947;" d="M725.443 237.563v-39.889l48.297 27.883v39.851z" />
<glyph unicode="&#xe948;" d="M176.936 318.751l72.591 41.74c13.237 7.008 30.231 6.012 48.786-4.697 42.2-24.36 76.405-89.727 76.405-145.99 0-30.936-10.334-52.609-26.68-61.91v0l-69.679-40.152z" />
<glyph unicode="&#xe949;" d="M464.135 152.402l72.591 41.74c13.237 7.008 30.231 6.012 48.786-4.697 42.2-24.36 76.405-89.727 76.405-145.99 0-30.936-10.334-52.609-26.68-61.91v0l-69.688-40.152z" />
<glyph unicode="&#xe94a;" d="M114.049 456.662v348.188l558.85-23.965v-348.188c0-0.035 0-0.077 0-0.118 0-8.689-4.719-16.277-11.734-20.339l-0.113-0.060-221.391-127.812c-7.299-4.286-16.076-6.818-25.445-6.818s-18.146 2.532-25.685 6.948l0.24-0.13-262.886 151.777c-7.128 4.123-11.847 11.71-11.847 20.399 0 0.042 0 0.083 0 0.125v-0.006z" />
<glyph unicode="&#xe94b;" d="M661.062 801.402l-262.896 151.777c-7.299 4.286-16.076 6.818-25.445 6.818s-18.146-2.532-25.685-6.948l0.24 0.13-221.391-127.812c-7.131-4.171-11.846-11.791-11.846-20.513s4.714-16.342 11.734-20.452l0.112-0.061 262.905-151.787c7.299-4.286 16.076-6.818 25.445-6.818s18.146 2.532 25.685 6.948l-0.24-0.13 221.381 127.822c7.131 4.171 11.846 11.791 11.846 20.513s-4.714 16.342-11.734 20.452l-0.112 0.061z" />
<glyph unicode="&#xe94c;" d="M575.817 850.61l-282.361-163.051-74.902 43.215 282.37 163.079z" />
<glyph unicode="&#xe94d;" d="M531.052 876.483l-282.361-163.023 14.674-8.455 282.361 163.004z" />
<glyph unicode="&#xe94e;" d="M293.456 687.56v-61.853l-74.902 43.215v61.919z" />
<glyph unicode="&#xe94f;" d="M894.356 287.824l-53.549 224.425c-6.695 27.422-23.933 49.958-47.071 63.513l-0.475 0.257-115.054 66.513c-2.587 1.532-5.702 2.437-9.028 2.437-4.256 0-8.166-1.482-11.242-3.958l0.035 0.027-241.448-139.396 15.83-121.104 25.365-14.825 192.221-376.259 236.741 136.671c1.765 0.732 3.288 1.628 4.667 2.701l-0.045-0.033c4.589 3.548 7.516 9.055 7.516 15.246 0 0.043 0 0.087 0 0.13v-0.007 105.726c-0.002 13.461-1.629 26.541-4.695 39.057l0.232-1.122z" />
<glyph unicode="&#xe950;" d="M685.197 142.679l33.717 19.465c0.431 0.252 0.95 0.401 1.503 0.401 1.665 0 3.014-1.349 3.016-3.013v0-29.602c-0.015-4.135-2.254-7.744-5.583-9.695l-0.053-0.029-33.717-19.465c-0.431-0.252-0.95-0.401-1.503-0.401-1.665 0-3.014 1.349-3.016 3.013v0 29.583c0.008 4.143 2.249 7.76 5.584 9.713l0.053 0.029z" />
<glyph unicode="&#xe951;" d="M851.141 238.559l33.717 19.465c0.431 0.252 0.95 0.401 1.503 0.401 1.665 0 3.014-1.349 3.016-3.013v0-29.602c-0.015-4.135-2.254-7.744-5.583-9.695l-0.053-0.029-33.717-19.465c-0.431-0.252-0.95-0.401-1.503-0.401-1.665 0-3.014 1.349-3.016 3.013v0 29.593c0.012 4.139 2.252 7.752 5.584 9.704l0.053 0.029z" />
<glyph unicode="&#xe952;" d="M409.393 308.247v179.003c0.004 9.975 8.090 18.059 18.066 18.059 3.324 0 6.438-0.898 9.113-2.464l-0.085 0.046 115.054-66.504c23.612-13.812 40.85-36.348 47.403-63.080l0.143-0.689 53.549-224.425c2.835-11.397 4.462-24.481 4.462-37.944v0-105.726c0-0.009 0-0.020 0-0.031 0-10.761-8.723-19.484-19.484-19.484-3.583 0-6.94 0.967-9.825 2.655l0.092-0.050-491.107 284.456c-13.902 8.125-23.095 22.975-23.101 39.973v111.739c0.009 6.469 5.255 11.709 11.724 11.709 2.166 0 4.195-0.587 5.936-1.612l-0.055 0.030 247.244-143.435c2.957-1.745 6.516-2.776 10.315-2.776 11.35 0 20.552 9.2 20.555 20.55v0z" />
<glyph unicode="&#xe953;" d="M439.108 278.711v183.456l92.855-53.69c9.041-5.289 15.557-14.061 17.741-24.428l0.043-0.242 39.288-191.723z" />
<glyph unicode="&#xe954;" d="M833.414 494.55l-206.209-119.056 42.388-183.409 206.209 119.056z" />
<glyph unicode="&#xe955;" d="M438.629 91.159c0 56.264 34.205 82.127 76.405 57.767s76.405-89.727 76.405-145.99-34.215-82.127-76.405-57.767-76.405 89.727-76.405 145.99z" />
<glyph unicode="&#xe956;" d="M553.377 63.624c15.811-37.107 11.61-74.439-9.383-83.384s-50.828 13.886-66.638 50.993c-15.811 37.107-11.61 74.439 9.383 83.384s50.828-13.886 66.638-50.993z" />
<glyph unicode="&#xe957;" d="M534.744 55.675c8.056-18.907 5.915-37.928-4.782-42.486s-25.899 7.074-33.955 25.981c-8.056 18.907-5.915 37.928 4.782 42.486s25.899-7.074 33.955-25.981z" />
<glyph unicode="&#xe958;" d="M151.43 257.508c0 56.264 34.205 82.127 76.405 57.767s76.405-89.727 76.405-145.99-34.205-82.127-76.405-57.767-76.405 89.727-76.405 145.99z" />
<glyph unicode="&#xe959;" d="M266.14 229.804c15.811-37.107 11.61-74.439-9.383-83.384s-50.828 13.886-66.638 50.993c-15.811 37.107-11.61 74.439 9.383 83.384s50.828-13.886 66.638-50.993z" />
<glyph unicode="&#xe95a;" d="M203.598 227.389c0 17.85 10.851 26.051 24.238 18.319 14.522-10.491 23.94-27.268 24.237-46.259l0.001-0.047c0-17.85-10.851-26.051-24.238-18.319-14.52 10.492-23.938 27.268-24.237 46.259l-0.001 0.047z" />
<glyph unicode="&#xe95b;" d="M898.114 154.751l-248.015-135.797-45.714 21.964v-53.163l39.213-22.641c3.21-1.885 7.069-2.998 11.189-2.998s7.979 1.113 11.294 3.055l-0.106-0.057 239.654 138.362c2.825 1.622 4.697 4.622 4.697 8.060 0 0.017 0 0.034 0 0.050v-0.003 53.163z" />
<glyph unicode="&#xe95c;" d="M615.011 47.043l42.069-24.285 241.73 139.565v14.468l6.83-3.936c2.796-1.662 4.64-4.667 4.64-8.103s-1.844-6.441-4.597-8.079l-0.043-0.024-239.644-138.362c-3.21-1.885-7.069-2.998-11.189-2.998s-7.979 1.113-11.294 3.055l0.106-0.057-39.213 22.641z" />
<glyph unicode="&#xe95d;" d="M736.585 116.074l101.404 58.546v-17.38c-0.010-11.391-6.178-21.339-15.354-26.695l-0.147-0.079-70.684-40.81c-1.455-0.854-3.205-1.358-5.073-1.358-5.607 0-10.153 4.544-10.155 10.151v0 17.624z" />
<glyph unicode="&#xe95e;" glyph-name="Mask-Group-260" d="M315.63 82.337l-220.422-48.985 48.985 220.422c-30.84 56.713-48.972 124.192-48.972 195.907 0 229.938 186.401 416.339 416.339 416.339s416.339-186.401 416.339-416.339c0-229.938-186.401-416.339-416.339-416.339-71.715 0-139.194 18.132-198.105 50.061l2.198-1.090zM327.704 170.448l27.196-14.574c45.394-24.691 99.407-39.208 156.811-39.208 184.011 0 333.181 149.17 333.181 333.181s-149.17 333.181-333.181 333.181c-184.011 0-333.181-149.17-333.181-333.181 0-57.363 14.497-111.341 40.026-158.469l-0.872 1.76 14.527-27.196-27.267-122.856 122.761 27.291zM303.509 449.929h83.349c0-69.048 55.975-125.023 125.023-125.023s125.023 55.975 125.023 125.023v0h83.349c0-115.035-93.254-208.289-208.289-208.289s-208.289 93.254-208.289 208.289v0z" />
<glyph unicode="&#xe95f;" glyph-name="Mask-Group-261" d="M511.786 866.435c0.014 0 0.031 0 0.048 0 230.069 0 416.577-186.508 416.577-416.577s-186.508-416.577-416.577-416.577c-230.069 0-416.577 186.508-416.577 416.577 0 0.017 0 0.033 0 0.050v-0.002c0.014 230.038 186.492 416.516 416.528 416.53h0.001zM511.786 783.086c-184.050 0-333.252-149.202-333.252-333.252s149.202-333.252 333.252-333.252c184.050 0 333.252 149.202 333.252 333.252 0 0.025 0 0.050 0 0.075v-0.004c-0.041 184.020-149.227 333.181-333.252 333.181v0zM511.786 658.111c114.998-0.040 208.206-93.274 208.206-208.277 0-115.028-93.249-208.277-208.277-208.277s-208.277 93.249-208.277 208.277c0 21.893 3.378 42.997 9.641 62.82l-0.402-1.475c16.735-36.48 52.943-61.361 94.962-61.361 57.527 0 104.162 46.635 104.162 104.162 0 42.019-24.88 78.227-60.713 94.695l-0.648 0.267c18.3 5.817 39.349 9.168 61.18 9.168 0.066 0 0.133 0 0.199 0h-0.010z" />
<glyph unicode="&#xe960;" glyph-name="Mask-Group-262" d="M541.672 870.34v59.773c0 16.506-13.381 29.887-29.887 29.887s-29.887-13.381-29.887-29.887v0-59.773c0-16.506 13.381-29.887 29.887-29.887s29.887 13.381 29.887 29.887v0zM296.984 792.85c10.277 4.874 17.257 15.166 17.257 27.087 0 4.587-1.033 8.932-2.879 12.816l0.077-0.181-25.195 54.177c-4.875 10.277-15.167 17.256-27.088 17.256-16.507 0-29.889-13.382-29.889-29.889 0-4.586 1.033-8.931 2.879-12.814l-0.077 0.181 25.267-54.177c4.88-10.262 15.163-17.23 27.074-17.23 4.564 0 8.889 1.023 12.758 2.852l-0.182-0.077zM118.879 699.071l-45.747 38.412c-5.184 4.44-11.971 7.143-19.389 7.143-16.506 0-29.887-13.381-29.887-29.887 0-9.256 4.208-17.529 10.814-23.011l0.049-0.040 45.723-38.412c5.184-4.44 11.971-7.143 19.389-7.143 16.506 0 29.887 13.381 29.887 29.887 0 9.256-4.208 17.529-10.814 23.011l-0.049 0.040zM766.119 807.305l25.267 54.177c1.385 3.322 2.19 7.182 2.19 11.229 0 16.506-13.381 29.887-29.887 29.887-11.368 0-21.254-6.347-26.307-15.691l-0.078-0.158-25.267-54.177c-1.385-3.322-2.19-7.182-2.19-11.229 0-16.506 13.381-29.887 29.887-29.887 11.368 0 21.254 6.347 26.307 15.691l0.078 0.158zM992.589 733.767c-5.519 6.548-13.726 10.679-22.897 10.679-7.334 0-14.050-2.641-19.251-7.025l0.045 0.037-45.794-38.412c-6.656-5.522-10.863-13.795-10.863-23.051 0-16.506 13.381-29.887 29.887-29.887 7.418 0 14.205 2.703 19.429 7.177l-0.041-0.034 45.794 38.412c6.548 5.519 10.679 13.726 10.679 22.897 0 7.334-2.641 14.050-7.025 19.251l0.037-0.045zM213.016 659.135c-10.441-0.097-19.621-5.404-25.079-13.443l-0.069-0.107-119.498-179.081c-3.112-4.656-4.966-10.382-4.966-16.541 0-7.546 2.783-14.441 7.378-19.716l-0.031 0.036 418.483-480.208c5.508-6.294 13.556-10.247 22.528-10.247s17.020 3.953 22.498 10.213l0.030 0.035 418.459 480.208c4.565 5.239 7.348 12.135 7.348 19.68 0 6.159-1.854 11.885-5.035 16.65l0.069-0.109-119.451 179.152c-5.431 8.193-14.604 13.528-25.025 13.55h-597.638zM874.353 479.815h-127.405l63.702 95.565zM404.599 479.815l107.163 107.163 107.163-107.163zM647.978 420.042l-136.192-363.21-136.216 363.187zM427.103 112.39l-268.074 307.629h152.719zM711.823 420.019h152.695l-268.074-307.629zM686.461 496.819l-102.519 102.543h170.889zM337.086 496.819l-68.346 102.519h170.889zM276.599 479.792h-127.405l63.702 95.565z" />
<glyph unicode="&#xe961;" glyph-name="Mask-Group-263" d="M938.27 710.692l48.509 48.58c5.362 5.311 8.682 12.675 8.682 20.814 0 15.344-11.798 27.932-26.816 29.188l-0.107 0.007-89.969 7.382-7.597 89.945c-1.264 15.126-13.852 26.923-29.195 26.923-8.139 0-15.503-3.32-20.812-8.679l-0.002-0.002-48.366-48.461c-74.24 46.084-164.312 73.399-260.763 73.399-276.089 0-499.903-223.814-499.903-499.903 0-138.028 55.94-262.99 146.385-353.452v0c90.457-90.423 215.405-146.348 353.414-146.348 276.089 0 499.903 223.814 499.903 499.903 0 96.426-27.301 186.476-74.596 262.841l1.234-2.139zM822.272 787.111c1.239-14.23 12.489-25.48 26.609-26.712l0.11-0.008 51.748-4.358-70.061-70.061-76.395 6.454-6.525 76.371 70.061 70.061zM611.376 449.905c0-0.055 0-0.12 0-0.185 0-55.055-44.631-99.685-99.685-99.685s-99.685 44.631-99.685 99.685c0 55.055 44.631 99.685 99.685 99.685 17.079 0 33.154-4.295 47.205-11.864l-0.53 0.261-67.274-67.274c-5.595-5.344-9.073-12.863-9.073-21.194 0-16.177 13.114-29.291 29.291-29.291 8.331 0 15.85 3.478 21.183 9.062l67.285 67.285c7.304-13.457 11.597-29.465 11.597-46.476 0-0.028 0-0.056 0-0.085v0.004zM600.945 580.477c-24.995 17.274-55.948 27.592-89.311 27.592-87.448 0-158.339-70.891-158.339-158.339s70.891-158.339 158.339-158.339c87.448 0 158.339 70.891 158.339 158.339 0 33.363-10.318 64.316-27.938 89.841l0.346-0.53 83.635 83.635c38.229-46.936 61.386-107.472 61.386-173.417 0-152.235-123.411-275.647-275.647-275.647s-275.647 123.411-275.647 275.647c0 152.235 123.411 275.647 275.647 275.647 65.666 0 125.969-22.962 173.318-61.294l-0.518 0.406zM823.844 137.871c-80.003-80.743-190.923-130.734-313.518-130.734-243.721 0-441.296 197.575-441.296 441.296 0 122.59 49.987 233.504 130.689 313.474l0.033 0.033c79.892 79.862 190.246 129.256 312.136 129.256 80.148 0 155.309-21.356 220.101-58.689l-2.139 1.136-33.030-33.030c-5.128-5.126-8.364-12.144-8.572-19.917l-0.001-0.039c0-1.072 0-2.143 0-3.215l4.025-46.747c-51.083 33.297-113.605 53.101-180.752 53.101-184.563 0-334.181-149.618-334.181-334.181s149.618-334.181 334.181-334.181c184.563 0 334.181 149.618 334.181 334.181 0 67.147-19.804 129.669-53.889 182.043l0.788-1.291 46.723-3.953c0.833 0 1.643 0 2.381 0h1.596c0.643 0 1.262 0 1.905 0.143l1.167 0.167 1.834 0.357 1.143 0.286 1.762 0.548 1.119 0.405c0.572 0.214 1.143 0.476 1.691 0.738l1.072 0.5c0.572 0.286 1.119 0.619 1.667 0.929l0.976 0.572c0.572 0.381 1.143 0.786 1.691 1.215l0.786 0.572c0.876 0.678 1.653 1.348 2.391 2.057l-0.010-0.009 33.030 33.030c36.196-62.654 57.552-137.814 57.552-217.963 0-121.89-49.394-232.244-129.257-312.137l0.001 0.001z" />
<glyph unicode="&#xe963;" d="M763.994 608.166c-119.145 66.65-310.362 173.658-607.021 339.757-11.16 7.546-24.917 12.045-39.725 12.045-8.293 0-16.255-1.411-23.662-4.006l0.501 0.153 508.988-508.988z" />
<glyph unicode="&#xe964;" d="M94.088 956.115c-4.221-1.432-7.793-3-11.203-4.83l0.391 0.192c-22.836-12.261-38.1-35.976-38.1-63.255 0-0.166 0.001-0.333 0.002-0.499v0.026-881.242c-0.001-0.114-0.001-0.249-0.001-0.383 0-27.28 15.265-50.994 37.718-63.068l0.381-0.187c3.015-1.633 6.587-3.2 10.292-4.482l0.52-0.156 508.988 508.988z" />
<glyph unicode="&#xe965;" d="M603.016 447.187l-508.988-508.988c6.93-2.491 14.927-3.931 23.259-3.931 14.8 0 28.539 4.543 39.899 12.31l-0.243-0.157c287.654 161.099 476.762 266.842 597.293 334.035l9.879 5.542z" />
<glyph unicode="&#xe966;" d="M45.176 447.187v-440.681c-0.001-0.114-0.001-0.249-0.001-0.383 0-27.28 15.265-50.994 37.718-63.068l0.381-0.187c3.014-1.632 6.586-3.199 10.291-4.481l0.521-0.157 508.988 508.988z" />
<glyph unicode="&#xe967;" d="M156.973 947.953c-11.186 7.555-24.973 12.061-39.813 12.061-12.408 0-24.081-3.15-34.262-8.695l0.376 0.188 512-512 168.659 168.659c-119.085 66.65-310.332 173.658-606.961 339.787z" />
<glyph unicode="&#xe968;" d="M595.305 454.927l-512-512c9.796-5.398 21.471-8.574 33.888-8.574 14.852 0 28.642 4.544 40.057 12.316l-0.247-0.159c287.654 161.099 476.762 266.842 597.293 334.035l9.879 5.542z" />
<glyph unicode="&#xe969;" d="M976.504 447.187c0.001 0.137 0.001 0.3 0.001 0.462 0 26.671-14.628 49.926-36.299 62.178l-0.356 0.185s-45.688 25.48-185.675 103.785l-166.52-166.52 166.671-166.671c138.541 77.734 185.495 103.966 185.495 103.966 22.043 12.433 36.684 35.697 36.684 62.379 0 0.083 0 0.165 0 0.248v-0.013z" />
<glyph unicode="&#xe96a;" d="M939.851 384.452c22.077 12.425 36.744 35.706 36.744 62.413 0 0.113 0 0.226-0.001 0.339v-0.017h-389.12l166.671-166.671c138.571 77.734 185.705 103.936 185.705 103.936z" />
<glyph unicode="&#xe96c;" glyph-name="location" d="M753.365 712.363c-133.291 131.115-349.397 131.115-482.688 0-133.291-131.157-133.291-343.765 0-474.88l241.323-237.44 241.365 237.44c133.291 131.115 133.291 343.723 0 474.88zM512 362.71c-28.501 0-55.253 11.093-75.435 31.232-41.6 41.6-41.6 109.269 0 150.869 20.139 20.139 46.933 31.232 75.435 31.232s55.296-11.093 75.435-31.232c41.6-41.6 41.6-109.312 0-150.869-20.139-20.139-46.933-31.232-75.435-31.232z" />
<glyph unicode="&#xe96d;" glyph-name="arrow-left" d="M542.165 158.166l-225.835 225.835h494.336c23.552 0 42.667 19.115 42.667 42.667s-19.115 42.667-42.667 42.667h-494.336l225.835 225.835c16.683 16.683 16.683 43.691 0 60.331s-43.691 16.683-60.331 0l-298.667-298.667c-4.096-4.096-7.168-8.789-9.259-13.824-2.176-5.205-3.243-10.795-3.243-16.341 0-10.923 4.181-21.845 12.501-30.165l298.667-298.667c16.683-16.683 43.691-16.683 60.331 0s16.683 43.691 0 60.331z" />
<glyph unicode="&#xe96e;" glyph-name="phone-call" d="M633.984 683.478c40.235-7.851 74.24-29.141 98.56-58.624 17.92-21.76 30.549-47.957 36.352-76.501 4.651-23.083 27.179-38.016 50.261-33.365s38.016 27.179 33.365 50.261c-8.533 42.325-27.307 81.365-54.144 113.877-36.437 44.203-87.765 76.331-148.053 88.064-23.125 4.523-45.525-10.581-50.048-33.707s10.581-45.525 33.707-50.048zM637.44 853.59c85.333-9.472 159.701-49.579 213.547-108.544 47.701-52.224 79.275-119.211 87.979-192.811 2.773-23.381 23.979-40.149 47.36-37.376s40.149 23.979 37.376 47.36c-10.795 91.605-50.176 175.189-109.696 240.384-67.328 73.728-160.512 123.989-267.136 135.808-23.424 2.603-44.501-14.293-47.104-37.675s14.293-44.501 37.675-47.104zM981.333 216.747c0.683 30.464-10.069 59.904-28.715 82.901-19.627 24.149-48.171 41.259-82.133 46.080-34.133 4.181-72.32 13.397-110.336 27.563-18.475 6.784-38.101 9.301-57.344 7.424-28.288-2.731-55.765-14.891-77.611-36.48l-30.72-30.72c-75.52 47.659-143.36 113.792-195.541 195.797l30.976 30.976c13.739 14.080 24.021 30.976 30.165 49.323 9.045 26.965 9.131 57.003-1.664 85.803-12.331 32.128-22.101 70.144-27.477 110.72-4.437 30.464-19.456 57.387-41.088 76.971-22.997 20.736-53.589 33.237-86.485 32.896h-127.829c-3.755 0-7.765-0.171-11.648-0.512-35.157-3.2-65.792-20.395-86.741-45.483s-32.341-58.325-29.141-93.824c12.8-131.243 58.24-266.368 137.216-388.352 64.085-102.955 155.648-197.248 268.715-269.056 109.568-72.405 242.517-122.112 387.669-137.856 3.925-0.384 8.149-0.555 12.288-0.555 35.328 0.128 67.328 14.635 90.368 37.845s37.248 55.339 37.12 90.496zM896 216.747v-128c0.043-11.947-4.651-22.613-12.373-30.379s-18.304-12.587-30.123-12.629c-134.357 14.336-254.336 59.349-352.555 124.245-103.595 65.835-185.984 150.912-243.285 242.944-72.405 111.787-113.28 233.856-124.757 351.488-1.024 11.435 2.731 22.443 9.771 30.891s17.195 14.080 28.928 15.147l131.755 0.213c11.563 0.128 21.632-4.011 29.312-10.923 7.253-6.571 12.288-15.616 13.781-25.941 6.059-45.739 17.408-90.325 32.299-129.067 3.456-9.216 3.413-19.072 0.427-28.075-2.091-6.187-5.589-11.989-10.325-16.853l-53.845-53.803c-13.824-13.824-16.171-34.731-6.912-51.243 67.584-118.827 163.797-211.499 272.256-272.128 16.939-9.472 37.632-6.144 50.987 7.083l54.187 54.187c7.083 6.997 16.085 10.965 25.515 11.904 6.485 0.64 13.227-0.213 19.584-2.56 43.605-16.256 88.32-27.136 129.451-32.171 10.283-1.451 19.712-7.083 26.24-15.147 6.272-7.723 9.856-17.579 9.643-29.099z" />
<glyph unicode="&#xe96f;" glyph-name="apple" d="M812.32 415.872c1.504-154.912 145.888-206.368 147.552-207.136-1.312-3.488-23.136-73.44-76.192-145.664-45.888-62.368-93.376-124.48-168.32-125.728-73.696-1.312-97.376 40.672-181.632 40.672-84.224 0-110.528-39.424-180.224-41.984-72.288-2.56-127.392 67.328-173.664 129.536-94.528 127.168-166.72 359.328-69.696 516 48.096 77.824 134.144 127.104 227.584 128.416 71.040 1.184 138.144-44.608 181.504-44.608 43.488 0 124.992 55.008 210.624 46.944 35.872-1.376 136.576-13.44 201.184-101.408-5.088-3.104-120.16-65.312-118.72-195.040zM510.592 724c-8.352 58.848 22.784 120.032 58.368 158.464 39.712 43.296 106.72 75.488 162.048 77.536 7.072-59.968-18.88-120.16-57.248-163.488-38.432-43.264-101.44-76.96-163.168-72.512z" />
<glyph unicode="&#xe970;" glyph-name="location2" d="M512 960c-176.732 0-320-143.268-320-320 0-320 320-704 320-704s320 384 320 704c0 176.732-143.27 320-320 320zM512 444c-108.248 0-196 87.752-196 196s87.752 196 196 196 196-87.752 196-196-87.752-196-196-196zM388 640c0 68.483 55.517 124 124 124s124-55.517 124-124c0-68.483-55.517-124-124-124s-124 55.517-124 124z" />
<glyph unicode="&#xe971;" glyph-name="social-facebook" d="M554.667 512h128v-128h-128v-298.667h-128v298.667h-128v128h128v53.547c0 50.731 15.957 114.816 47.701 149.845 31.744 35.115 71.381 52.608 118.869 52.608h89.429v-128h-89.6c-21.248 0-38.4-17.152-38.4-38.357v-89.643z" />
<glyph unicode="&#xea92;" glyph-name="instagram" d="M512 867.8c136.8 0 153-0.6 206.8-3 50-2.2 77-10.6 95-17.6 23.8-9.2 41-20.4 58.8-38.2 18-18 29-35 38.4-58.8 7-18 15.4-45.2 17.6-95 2.4-54 3-70.2 3-206.8s-0.6-153-3-206.8c-2.2-50-10.6-77-17.6-95-9.2-23.8-20.4-41-38.2-58.8-18-18-35-29-58.8-38.4-18-7-45.2-15.4-95-17.6-54-2.4-70.2-3-206.8-3s-153 0.6-206.8 3c-50 2.2-77 10.6-95 17.6-23.8 9.2-41 20.4-58.8 38.2-18 18-29 35-38.4 58.8-7 18-15.4 45.2-17.6 95-2.4 54-3 70.2-3 206.8s0.6 153 3 206.8c2.2 50 10.6 77 17.6 95 9.2 23.8 20.4 41 38.2 58.8 18 18 35 29 58.8 38.4 18 7 45.2 15.4 95 17.6 53.8 2.4 70 3 206.8 3zM512 960c-139 0-156.4-0.6-211-3-54.4-2.4-91.8-11.2-124.2-23.8-33.8-13.2-62.4-30.6-90.8-59.2-28.6-28.4-46-57-59.2-90.6-12.6-32.6-21.4-69.8-23.8-124.2-2.4-54.8-3-72.2-3-211.2s0.6-156.4 3-211c2.4-54.4 11.2-91.8 23.8-124.2 13.2-33.8 30.6-62.4 59.2-90.8 28.4-28.4 57-46 90.6-59 32.6-12.6 69.8-21.4 124.2-23.8 54.6-2.4 72-3 211-3s156.4 0.6 211 3c54.4 2.4 91.8 11.2 124.2 23.8 33.6 13 62.2 30.6 90.6 59s46 57 59 90.6c12.6 32.6 21.4 69.8 23.8 124.2 2.4 54.6 3 72 3 211s-0.6 156.4-3 211c-2.4 54.4-11.2 91.8-23.8 124.2-12.6 34-30 62.6-58.6 91-28.4 28.4-57 46-90.6 59-32.6 12.6-69.8 21.4-124.2 23.8-54.8 2.6-72.2 3.2-211.2 3.2v0zM512 711c-145.2 0-263-117.8-263-263s117.8-263 263-263 263 117.8 263 263c0 145.2-117.8 263-263 263zM512 277.4c-94.2 0-170.6 76.4-170.6 170.6s76.4 170.6 170.6 170.6c94.2 0 170.6-76.4 170.6-170.6s-76.4-170.6-170.6-170.6zM846.8 721.4c0-33.91-27.49-61.4-61.4-61.4s-61.4 27.49-61.4 61.4c0 33.91 27.49 61.4 61.4 61.4s61.4-27.49 61.4-61.4z" />
<glyph unicode="&#xea96;" glyph-name="twitter" d="M1024 733.6c-37.6-16.8-78.2-28-120.6-33 43.4 26 76.6 67.2 92.4 116.2-40.6-24-85.6-41.6-133.4-51-38.4 40.8-93 66.2-153.4 66.2-116 0-210-94-210-210 0-16.4 1.8-32.4 5.4-47.8-174.6 8.8-329.4 92.4-433 219.6-18-31-28.4-67.2-28.4-105.6 0-72.8 37-137.2 93.4-174.8-34.4 1-66.8 10.6-95.2 26.2 0-0.8 0-1.8 0-2.6 0-101.8 72.4-186.8 168.6-206-17.6-4.8-36.2-7.4-55.4-7.4-13.6 0-26.6 1.4-39.6 3.8 26.8-83.4 104.4-144.2 196.2-146-72-56.4-162.4-90-261-90-17 0-33.6 1-50.2 3 93.2-59.8 203.6-94.4 322.2-94.4 386.4 0 597.8 320.2 597.8 597.8 0 9.2-0.2 18.2-0.6 27.2 41 29.4 76.6 66.4 104.8 108.6z" />
<glyph unicode="&#xeaca;" glyph-name="linkedin" d="M384 576h177.106v-90.782h2.532c24.64 44.194 84.958 90.782 174.842 90.782 186.946 0 221.52-116.376 221.52-267.734v-308.266h-184.61v273.278c0 65.184-1.334 149.026-96.028 149.026-96.148 0-110.82-70.986-110.82-144.292v-278.012h-184.542v576zM64 576h192v-576h-192v576zM256 736c0-53.019-42.981-96-96-96s-96 42.981-96 96c0 53.019 42.981 96 96 96s96-42.981 96-96z" />
<glyph unicode="&#xf003;" glyph-name="envelope-o" d="M950.857 91.428v438.857c-12-13.714-25.143-26.286-39.429-37.714-81.714-62.857-164-126.857-243.429-193.143-42.857-36-96-80-155.429-80h-1.143c-59.429 0-112.571 44-155.429 80-79.429 66.286-161.714 130.286-243.429 193.143-14.286 11.429-27.429 24-39.429 37.714v-438.857c0-9.714 8.571-18.286 18.286-18.286h841.143c9.714 0 18.286 8.571 18.286 18.286zM950.857 692c0 14.286 3.429 39.429-18.286 39.429h-841.143c-9.714 0-18.286-8.571-18.286-18.286 0-65.143 32.571-121.714 84-162.286 76.571-60 153.143-120.571 229.143-181.143 30.286-24.571 85.143-77.143 125.143-77.143h1.143c40 0 94.857 52.571 125.143 77.143 76 60.571 152.571 121.143 229.143 181.143 37.143 29.143 84 92.571 84 141.143zM1024 713.143v-621.714c0-50.286-41.143-91.429-91.429-91.429h-841.143c-50.286 0-91.429 41.143-91.429 91.429v621.714c0 50.286 41.143 91.429 91.429 91.429h841.143c50.286 0 91.429-41.143 91.429-91.429z" />
<glyph unicode="&#xf0e0;" glyph-name="envelope" d="M1024 545.143v-453.714c0-50.286-41.143-91.429-91.429-91.429h-841.143c-50.286 0-91.429 41.143-91.429 91.429v453.714c17.143-18.857 36.571-35.429 57.714-49.714 94.857-64.571 190.857-129.143 284-197.143 48-35.429 107.429-78.857 169.714-78.857h1.143c62.286 0 121.714 43.429 169.714 78.857 93.143 67.429 189.143 132.571 284.571 197.143 20.571 14.286 40 30.857 57.143 49.714zM1024 713.143c0-64-47.429-121.714-97.714-156.571-89.143-61.714-178.857-123.429-267.429-185.714-37.143-25.714-100-78.286-146.286-78.286h-1.143c-46.286 0-109.143 52.571-146.286 78.286-88.571 62.286-178.286 124-266.857 185.714-40.571 27.429-98.286 92-98.286 144 0 56 30.286 104 91.429 104h841.143c49.714 0 91.429-41.143 91.429-91.429z" />
<glyph unicode="" glyph-name="envelope" d="M1024 545.143v-453.714c0-50.286-41.143-91.429-91.429-91.429h-841.143c-50.286 0-91.429 41.143-91.429 91.429v453.714c17.143-18.857 36.571-35.429 57.714-49.714 94.857-64.571 190.857-129.143 284-197.143 48-35.429 107.429-78.857 169.714-78.857h1.143c62.286 0 121.714 43.429 169.714 78.857 93.143 67.429 189.143 132.571 284.571 197.143 20.571 14.286 40 30.857 57.143 49.714zM1024 713.143c0-64-47.429-121.714-97.714-156.571-89.143-61.714-178.857-123.429-267.429-185.714-37.143-25.714-100-78.286-146.286-78.286h-1.143c-46.286 0-109.143 52.571-146.286 78.286-88.571 62.286-178.286 124-266.857 185.714-40.571 27.429-98.286 92-98.286 144 0 56 30.286 104 91.429 104h841.143c49.714 0 91.429-41.143 91.429-91.429z" />
<glyph unicode="twitter" glyph-name="twitter" d="M1024 733.6c-37.6-16.8-78.2-28-120.6-33 43.4 26 76.6 67.2 92.4 116.2-40.6-24-85.6-41.6-133.4-51-38.4 40.8-93 66.2-153.4 66.2-116 0-210-94-210-210 0-16.4 1.8-32.4 5.4-47.8-174.6 8.8-329.4 92.4-433 219.6-18-31-28.4-67.2-28.4-105.6 0-72.8 37-137.2 93.4-174.8-34.4 1-66.8 10.6-95.2 26.2 0-0.8 0-1.8 0-2.6 0-101.8 72.4-186.8 168.6-206-17.6-4.8-36.2-7.4-55.4-7.4-13.6 0-26.6 1.4-39.6 3.8 26.8-83.4 104.4-144.2 196.2-146-72-56.4-162.4-90-261-90-17 0-33.6 1-50.2 3 93.2-59.8 203.6-94.4 322.2-94.4 386.4 0 597.8 320.2 597.8 597.8 0 9.2-0.2 18.2-0.6 27.2 41 29.4 76.6 66.4 104.8 108.6z" />
<glyph unicode="map-marker2" glyph-name="location2" d="M512 960c-176.732 0-320-143.268-320-320 0-320 320-704 320-704s320 384 320 704c0 176.732-143.27 320-320 320zM512 444c-108.248 0-196 87.752-196 196s87.752 196 196 196 196-87.752 196-196-87.752-196-196-196zM388 640c0 68.483 55.517 124 124 124s124-55.517 124-124c0-68.483-55.517-124-124-124s-124 55.517-124 124z" />
<glyph unicode="location2" glyph-name="location2" d="M512 960c-176.732 0-320-143.268-320-320 0-320 320-704 320-704s320 384 320 704c0 176.732-143.27 320-320 320zM512 444c-108.248 0-196 87.752-196 196s87.752 196 196 196 196-87.752 196-196-87.752-196-196-196zM388 640c0 68.483 55.517 124 124 124s124-55.517 124-124c0-68.483-55.517-124-124-124s-124 55.517-124 124z" />
<glyph unicode="linkedin2" glyph-name="linkedin" d="M384 576h177.106v-90.782h2.532c24.64 44.194 84.958 90.782 174.842 90.782 186.946 0 221.52-116.376 221.52-267.734v-308.266h-184.61v273.278c0 65.184-1.334 149.026-96.028 149.026-96.148 0-110.82-70.986-110.82-144.292v-278.012h-184.542v576zM64 576h192v-576h-192v576zM256 736c0-53.019-42.981-96-96-96s-96 42.981-96 96c0 53.019 42.981 96 96 96s96-42.981 96-96z" />
<glyph unicode="instagram" glyph-name="instagram" d="M512 867.8c136.8 0 153-0.6 206.8-3 50-2.2 77-10.6 95-17.6 23.8-9.2 41-20.4 58.8-38.2 18-18 29-35 38.4-58.8 7-18 15.4-45.2 17.6-95 2.4-54 3-70.2 3-206.8s-0.6-153-3-206.8c-2.2-50-10.6-77-17.6-95-9.2-23.8-20.4-41-38.2-58.8-18-18-35-29-58.8-38.4-18-7-45.2-15.4-95-17.6-54-2.4-70.2-3-206.8-3s-153 0.6-206.8 3c-50 2.2-77 10.6-95 17.6-23.8 9.2-41 20.4-58.8 38.2-18 18-29 35-38.4 58.8-7 18-15.4 45.2-17.6 95-2.4 54-3 70.2-3 206.8s0.6 153 3 206.8c2.2 50 10.6 77 17.6 95 9.2 23.8 20.4 41 38.2 58.8 18 18 35 29 58.8 38.4 18 7 45.2 15.4 95 17.6 53.8 2.4 70 3 206.8 3zM512 960c-139 0-156.4-0.6-211-3-54.4-2.4-91.8-11.2-124.2-23.8-33.8-13.2-62.4-30.6-90.8-59.2-28.6-28.4-46-57-59.2-90.6-12.6-32.6-21.4-69.8-23.8-124.2-2.4-54.8-3-72.2-3-211.2s0.6-156.4 3-211c2.4-54.4 11.2-91.8 23.8-124.2 13.2-33.8 30.6-62.4 59.2-90.8 28.4-28.4 57-46 90.6-59 32.6-12.6 69.8-21.4 124.2-23.8 54.6-2.4 72-3 211-3s156.4 0.6 211 3c54.4 2.4 91.8 11.2 124.2 23.8 33.6 13 62.2 30.6 90.6 59s46 57 59 90.6c12.6 32.6 21.4 69.8 23.8 124.2 2.4 54.6 3 72 3 211s-0.6 156.4-3 211c-2.4 54.4-11.2 91.8-23.8 124.2-12.6 34-30 62.6-58.6 91-28.4 28.4-57 46-90.6 59-32.6 12.6-69.8 21.4-124.2 23.8-54.8 2.6-72.2 3.2-211.2 3.2v0zM512 711c-145.2 0-263-117.8-263-263s117.8-263 263-263 263 117.8 263 263c0 145.2-117.8 263-263 263zM512 277.4c-94.2 0-170.6 76.4-170.6 170.6s76.4 170.6 170.6 170.6c94.2 0 170.6-76.4 170.6-170.6s-76.4-170.6-170.6-170.6zM846.8 721.4c0-33.91-27.49-61.4-61.4-61.4s-61.4 27.49-61.4 61.4c0 33.91 27.49 61.4 61.4 61.4s61.4-27.49 61.4-61.4z" />
<glyph unicode="brand65" glyph-name="linkedin" d="M384 576h177.106v-90.782h2.532c24.64 44.194 84.958 90.782 174.842 90.782 186.946 0 221.52-116.376 221.52-267.734v-308.266h-184.61v273.278c0 65.184-1.334 149.026-96.028 149.026-96.148 0-110.82-70.986-110.82-144.292v-278.012h-184.542v576zM64 576h192v-576h-192v576zM256 736c0-53.019-42.981-96-96-96s-96 42.981-96 96c0 53.019 42.981 96 96 96s96-42.981 96-96z" />
<glyph unicode="brand16" glyph-name="twitter" d="M1024 733.6c-37.6-16.8-78.2-28-120.6-33 43.4 26 76.6 67.2 92.4 116.2-40.6-24-85.6-41.6-133.4-51-38.4 40.8-93 66.2-153.4 66.2-116 0-210-94-210-210 0-16.4 1.8-32.4 5.4-47.8-174.6 8.8-329.4 92.4-433 219.6-18-31-28.4-67.2-28.4-105.6 0-72.8 37-137.2 93.4-174.8-34.4 1-66.8 10.6-95.2 26.2 0-0.8 0-1.8 0-2.6 0-101.8 72.4-186.8 168.6-206-17.6-4.8-36.2-7.4-55.4-7.4-13.6 0-26.6 1.4-39.6 3.8 26.8-83.4 104.4-144.2 196.2-146-72-56.4-162.4-90-261-90-17 0-33.6 1-50.2 3 93.2-59.8 203.6-94.4 322.2-94.4 386.4 0 597.8 320.2 597.8 597.8 0 9.2-0.2 18.2-0.6 27.2 41 29.4 76.6 66.4 104.8 108.6z" />
<glyph unicode="brand12" glyph-name="instagram" d="M512 867.8c136.8 0 153-0.6 206.8-3 50-2.2 77-10.6 95-17.6 23.8-9.2 41-20.4 58.8-38.2 18-18 29-35 38.4-58.8 7-18 15.4-45.2 17.6-95 2.4-54 3-70.2 3-206.8s-0.6-153-3-206.8c-2.2-50-10.6-77-17.6-95-9.2-23.8-20.4-41-38.2-58.8-18-18-35-29-58.8-38.4-18-7-45.2-15.4-95-17.6-54-2.4-70.2-3-206.8-3s-153 0.6-206.8 3c-50 2.2-77 10.6-95 17.6-23.8 9.2-41 20.4-58.8 38.2-18 18-29 35-38.4 58.8-7 18-15.4 45.2-17.6 95-2.4 54-3 70.2-3 206.8s0.6 153 3 206.8c2.2 50 10.6 77 17.6 95 9.2 23.8 20.4 41 38.2 58.8 18 18 35 29 58.8 38.4 18 7 45.2 15.4 95 17.6 53.8 2.4 70 3 206.8 3zM512 960c-139 0-156.4-0.6-211-3-54.4-2.4-91.8-11.2-124.2-23.8-33.8-13.2-62.4-30.6-90.8-59.2-28.6-28.4-46-57-59.2-90.6-12.6-32.6-21.4-69.8-23.8-124.2-2.4-54.8-3-72.2-3-211.2s0.6-156.4 3-211c2.4-54.4 11.2-91.8 23.8-124.2 13.2-33.8 30.6-62.4 59.2-90.8 28.4-28.4 57-46 90.6-59 32.6-12.6 69.8-21.4 124.2-23.8 54.6-2.4 72-3 211-3s156.4 0.6 211 3c54.4 2.4 91.8 11.2 124.2 23.8 33.6 13 62.2 30.6 90.6 59s46 57 59 90.6c12.6 32.6 21.4 69.8 23.8 124.2 2.4 54.6 3 72 3 211s-0.6 156.4-3 211c-2.4 54.4-11.2 91.8-23.8 124.2-12.6 34-30 62.6-58.6 91-28.4 28.4-57 46-90.6 59-32.6 12.6-69.8 21.4-124.2 23.8-54.8 2.6-72.2 3.2-211.2 3.2v0zM512 711c-145.2 0-263-117.8-263-263s117.8-263 263-263 263 117.8 263 263c0 145.2-117.8 263-263 263zM512 277.4c-94.2 0-170.6 76.4-170.6 170.6s76.4 170.6 170.6 170.6c94.2 0 170.6-76.4 170.6-170.6s-76.4-170.6-170.6-170.6zM846.8 721.4c0-33.91-27.49-61.4-61.4-61.4s-61.4 27.49-61.4 61.4c0 33.91 27.49 61.4 61.4 61.4s61.4-27.49 61.4-61.4z" />
</font>
</defs>
</svg>
